<svg xmlns="http://www.w3.org/2000/svg" width="512" height="512" viewBox="0 0 512 512">
<g>
<path d="M 233.57 326.37 C225.93,328.90 218.39,328.27 212.85,324.64 C211.49,323.74 208.15,322.73 205.44,322.37 C200.43,321.73 196.55,319.33 184.62,309.51 C179.77,305.52 170.00,292.31 170.00,289.74 C170.00,289.00 168.93,286.17 167.63,283.45 C166.13,280.33 164.67,274.25 163.66,267.00 C161.73,253.13 162.55,243.64 166.54,233.67 C168.99,227.54 170.54,225.49 177.23,219.46 C178.48,218.33 180.90,215.37 182.61,212.87 C184.46,210.18 189.14,205.93 194.11,202.44 C198.73,199.20 207.81,191.26 214.29,184.80 C224.00,175.13 226.92,172.80 230.79,171.65 C233.38,170.88 237.30,169.48 239.50,168.55 C245.55,165.99 261.48,163.84 269.00,164.56 C275.21,165.16 287.45,169.67 291.08,172.69 C291.95,173.41 294.77,174.00 297.36,174.00 C303.61,174.00 312.37,178.47 318.89,184.98 C321.65,187.74 324.57,190.00 325.39,190.00 C328.19,190.00 340.99,208.23 341.00,212.24 C341.00,213.20 342.10,216.80 343.44,220.24 C346.43,227.89 346.98,231.26 347.69,246.18 C348.28,258.59 348.27,258.62 342.20,270.97 C340.26,274.93 330.72,283.02 323.83,286.56 C319.99,288.53 318.65,288.77 316.25,287.94 C312.96,286.79 310.53,287.57 305.10,291.53 C301.12,294.42 298.35,294.62 295.29,292.23 C293.15,290.55 293.11,290.19 294.04,280.52 C294.56,275.03 295.63,268.28 296.41,265.52 C297.19,262.76 298.14,258.48 298.52,256.00 C298.90,253.52 299.91,250.71 300.76,249.75 C302.16,248.17 302.15,247.83 300.71,246.23 C299.22,244.59 293.91,232.78 292.06,227.00 C289.45,218.86 283.65,212.58 276.78,210.44 C275.52,210.06 273.33,208.91 271.89,207.90 C270.46,206.89 267.17,205.50 264.58,204.81 C262.00,204.12 259.12,202.84 258.20,201.96 C256.66,200.50 256.40,200.52 255.01,202.14 C253.99,203.35 251.41,204.12 247.00,204.54 C243.43,204.89 238.17,205.99 235.31,206.99 C229.06,209.18 222.00,214.61 222.00,217.23 C222.00,218.28 221.52,220.03 220.93,221.13 C220.34,222.23 219.46,225.24 218.97,227.82 C218.48,230.39 217.56,235.20 216.92,238.50 C216.29,241.80 215.12,245.23 214.33,246.13 C213.08,247.57 213.21,248.22 215.42,251.48 C216.81,253.53 218.25,256.84 218.62,258.85 C219.00,260.86 220.01,263.58 220.87,264.90 C222.67,267.67 226.99,277.99 227.00,279.54 C227.00,280.12 229.36,282.37 232.25,284.54 C235.14,286.71 237.99,289.13 238.60,289.90 C239.66,291.25 243.05,293.26 249.58,296.40 C253.35,298.22 254.63,299.70 255.53,303.26 C256.43,306.86 258.67,306.77 259.48,303.10 C260.00,300.71 260.96,299.92 264.81,298.69 C267.39,297.87 271.52,296.90 274.00,296.54 C276.48,296.19 279.74,295.66 281.25,295.37 C283.31,294.97 284.00,295.24 284.00,296.42 C284.00,297.31 283.16,298.00 282.08,298.00 C281.03,298.00 280.02,298.34 279.83,298.75 C279.04,300.53 268.98,308.00 267.32,308.04 C260.50,308.21 252.72,312.15 251.48,316.07 C251.16,317.06 249.24,318.41 247.20,319.06 C245.17,319.71 242.38,321.25 241.00,322.49 C239.62,323.72 236.28,325.47 233.57,326.37 Z" fill="rgb(31,45,165)"/>
<path d="M 227.50 337.32 C211.08,341.00 209.47,340.73 197.26,332.37 C182.31,322.14 175.97,314.82 167.24,297.75 C159.60,282.81 155.53,265.35 156.58,252.00 C158.02,233.58 160.00,223.57 163.69,216.19 C165.69,212.17 167.33,208.20 167.33,207.36 C167.33,205.34 175.55,196.28 178.12,195.46 C179.45,195.04 180.58,195.41 181.40,196.53 C182.57,198.14 182.84,198.13 186.07,196.48 C192.24,193.34 202.15,184.60 204.76,180.00 C206.17,177.52 208.75,173.93 210.51,172.00 C212.26,170.07 214.94,166.82 216.45,164.77 C222.21,156.98 238.22,147.99 249.84,146.03 C267.52,143.04 299.76,152.50 314.86,165.10 C326.09,174.47 333.37,181.75 337.69,187.93 C344.13,197.14 350.68,209.69 352.08,215.50 C352.75,218.25 353.65,221.21 354.09,222.08 C355.48,224.82 358.00,242.68 358.00,249.74 C358.00,257.56 355.67,270.82 353.60,274.78 C351.02,279.72 337.97,288.18 311.70,301.94 C295.33,310.51 276.10,319.40 257.07,327.18 C240.18,334.09 237.00,335.19 227.50,337.32 ZM 233.57 326.37 C236.28,325.47 239.62,323.72 241.00,322.49 C242.38,321.25 245.17,319.71 247.20,319.06 C249.24,318.41 251.16,317.06 251.48,316.07 C252.72,312.15 260.50,308.21 267.32,308.04 C268.98,308.00 279.04,300.53 279.83,298.75 C280.02,298.34 281.03,298.00 282.08,298.00 C283.16,298.00 284.00,297.31 284.00,296.42 C284.00,295.24 283.31,294.97 281.25,295.37 C279.74,295.66 276.48,296.19 274.00,296.54 C271.52,296.90 267.39,297.87 264.81,298.69 C260.96,299.92 260.00,300.71 259.48,303.10 C258.67,306.77 256.43,306.86 255.53,303.26 C254.63,299.70 253.35,298.22 249.58,296.40 C243.05,293.26 239.66,291.25 238.60,289.90 C237.99,289.13 235.14,286.71 232.25,284.54 C229.36,282.37 227.00,280.12 227.00,279.54 C226.99,277.99 222.67,267.67 220.87,264.90 C220.01,263.58 219.00,260.86 218.62,258.85 C218.25,256.84 216.81,253.53 215.42,251.48 C213.21,248.22 213.08,247.57 214.33,246.13 C215.12,245.23 216.29,241.80 216.92,238.50 C217.56,235.20 218.48,230.39 218.97,227.82 C219.46,225.24 220.34,222.23 220.93,221.13 C221.52,220.03 222.00,218.28 222.00,217.23 C222.00,214.61 229.06,209.18 235.31,206.99 C238.17,205.99 243.43,204.89 247.00,204.54 C251.41,204.12 253.99,203.35 255.01,202.14 C256.40,200.52 256.66,200.50 258.20,201.96 C259.12,202.84 262.00,204.12 264.58,204.81 C267.17,205.50 270.46,206.89 271.89,207.90 C273.33,208.91 275.52,210.06 276.78,210.44 C283.65,212.58 289.45,218.86 292.06,227.00 C293.91,232.78 299.22,244.59 300.71,246.23 C302.15,247.83 302.16,248.17 300.76,249.75 C299.91,250.71 298.90,253.52 298.52,256.00 C298.14,258.48 297.19,262.76 296.41,265.52 C295.63,268.28 294.56,275.03 294.04,280.52 C293.11,290.19 293.15,290.55 295.29,292.23 C298.35,294.62 301.12,294.42 305.10,291.53 C310.53,287.57 312.96,286.79 316.25,287.94 C318.65,288.77 319.99,288.53 323.83,286.56 C330.72,283.02 340.26,274.93 342.20,270.97 C348.27,258.62 348.28,258.59 347.69,246.18 C346.98,231.26 346.43,227.89 343.44,220.24 C342.10,216.80 341.00,213.20 341.00,212.24 C340.99,208.23 328.19,190.00 325.39,190.00 C324.57,190.00 321.65,187.74 318.89,184.98 C312.37,178.47 303.61,174.00 297.36,174.00 C294.77,174.00 291.95,173.41 291.08,172.69 C287.45,169.67 275.21,165.16 269.00,164.56 C261.48,163.84 245.55,165.99 239.50,168.55 C237.30,169.48 233.38,170.88 230.79,171.65 C226.92,172.80 224.00,175.13 214.29,184.80 C207.81,191.26 198.73,199.20 194.11,202.44 C189.14,205.93 184.46,210.18 182.61,212.87 C180.90,215.37 178.48,218.33 177.23,219.46 C170.54,225.49 168.99,227.54 166.54,233.67 C162.55,243.64 161.73,253.13 163.66,267.00 C164.67,274.25 166.13,280.33 167.63,283.45 C168.93,286.17 170.00,289.00 170.00,289.74 C170.00,292.31 179.77,305.52 184.62,309.51 C196.55,319.33 200.43,321.73 205.44,322.37 C208.15,322.73 211.49,323.74 212.85,324.64 C218.39,328.27 225.93,328.90 233.57,326.37 ZM 269.65 351.93 C259.98,353.01 243.76,353.25 241.00,352.36 C226.51,347.66 227.14,346.27 247.50,338.09 C254.65,335.21 261.85,332.26 263.50,331.53 C265.15,330.80 270.55,328.55 275.50,326.53 C285.65,322.40 294.37,318.05 313.00,307.81 C315.48,306.45 320.20,303.86 323.50,302.05 C326.80,300.25 332.75,296.79 336.73,294.38 C340.71,291.97 344.42,290.00 344.98,290.00 C345.54,290.00 346.00,291.76 346.00,293.91 C346.00,296.95 344.88,299.47 340.94,305.30 C323.24,331.50 296.60,348.93 269.65,351.93 ZM 256.00 278.73 C256.00,279.55 256.67,279.33 257.86,278.14 C258.89,277.11 261.48,275.95 263.61,275.55 C265.75,275.15 269.52,273.96 272.00,272.90 C275.97,271.19 276.87,270.18 279.67,264.23 C281.41,260.53 283.06,256.01 283.34,254.20 C283.62,252.38 284.37,250.26 285.02,249.48 C285.94,248.37 285.86,247.72 284.68,246.54 C283.85,245.71 282.40,242.66 281.45,239.76 C280.50,236.87 279.02,233.15 278.16,231.50 C277.30,229.85 276.72,228.05 276.88,227.50 C277.04,226.95 276.86,226.81 276.49,227.18 C276.11,227.55 273.04,226.36 269.65,224.52 C266.27,222.69 262.04,220.89 260.25,220.52 C258.23,220.10 256.96,219.21 256.88,218.17 C256.78,216.64 256.73,216.64 256.33,218.15 C256.08,219.08 254.42,220.07 252.49,220.44 C247.39,221.39 240.71,224.60 238.41,227.20 C235.32,230.69 231.00,239.84 231.00,242.89 C231.00,244.38 230.44,246.16 229.76,246.84 C228.81,247.79 228.79,248.26 229.70,248.82 C230.36,249.22 231.39,251.79 231.99,254.53 C232.60,257.26 234.61,261.80 236.46,264.60 C239.32,268.94 241.03,270.28 247.91,273.58 C252.36,275.71 256.00,278.03 256.00,278.73 ZM 300.33 427.92 C291.57,430.15 289.88,430.27 286.00,428.95 L 283.50 428.09 L 286.00 428.27 C287.38,428.36 288.95,428.17 289.50,427.85 C290.05,427.53 292.30,426.94 294.49,426.54 C302.32,425.12 321.17,418.92 330.85,414.57 C367.08,398.28 398.38,368.49 416.51,333.00 C418.34,329.42 420.53,325.60 421.39,324.50 C422.80,322.68 422.94,322.66 422.97,324.28 C423.05,329.03 408.21,353.84 397.83,366.29 C371.90,397.43 339.33,418.02 300.33,427.92 ZM 362.31 151.92 C353.13,154.27 350.21,154.52 357.00,152.39 C365.63,149.68 385.03,146.01 393.73,145.44 C398.55,145.13 403.52,144.67 404.76,144.41 C406.97,143.97 406.98,143.87 405.41,140.82 C398.36,127.19 374.53,103.71 354.13,90.29 C345.93,84.89 328.62,76.08 320.19,73.01 C316.14,71.54 314.23,70.37 314.85,69.75 C316.17,68.43 321.12,70.12 334.63,76.50 C358.89,87.94 379.62,104.35 398.98,127.44 C405.77,135.54 409.63,141.70 408.58,142.75 C408.27,143.06 408.52,143.92 409.13,144.66 C410.04,145.76 409.01,146.00 403.37,146.00 C394.89,146.01 373.24,149.13 362.31,151.92 ZM 227.50 429.00 C222.88,430.17 221.08,430.03 213.00,427.87 C180.40,419.16 153.01,403.57 128.30,379.65 C118.47,370.14 122.13,371.03 132.82,380.75 C149.74,396.13 163.89,405.67 182.50,414.26 C196.15,420.55 219.58,427.69 228.00,428.11 C230.32,428.23 230.28,428.29 227.50,429.00 ZM 86.73 314.08 C87.01,315.14 86.96,316.00 86.64,316.00 C86.31,316.00 85.75,314.84 85.39,313.43 C84.88,311.40 85.74,309.40 89.47,303.94 C94.76,296.20 117.08,273.00 119.24,273.00 C119.63,273.00 122.31,270.75 125.20,268.00 C128.08,265.25 131.01,263.00 131.72,263.00 C132.42,263.00 133.00,262.64 133.00,262.21 C133.00,261.77 135.25,259.70 138.00,257.60 C143.16,253.67 144.41,250.48 141.29,249.28 C139.94,248.76 140.20,248.46 142.53,247.83 C144.33,247.35 146.50,247.49 148.10,248.20 C150.60,249.31 150.75,249.81 151.37,259.43 C151.73,264.97 152.24,270.85 152.51,272.50 L 152.99 275.50 L 152.00 272.50 C151.45,270.85 150.71,265.79 150.36,261.25 C150.00,256.71 149.29,253.00 148.79,253.00 C148.28,253.00 146.89,253.52 145.68,254.15 C142.82,255.66 119.01,274.66 116.72,277.27 C115.03,279.19 115.03,279.39 116.70,281.39 C117.66,282.55 117.81,282.94 117.02,282.25 C114.34,279.89 112.34,281.01 104.43,289.29 C91.93,302.35 85.88,310.83 86.73,314.08 ZM 347.49 188.98 C350.00,193.84 348.74,192.49 344.02,185.25 C341.59,181.54 336.92,175.69 333.64,172.25 C330.36,168.81 327.86,165.82 328.09,165.60 C328.31,165.39 333.13,163.79 338.79,162.05 C363.05,154.59 390.19,150.85 405.59,152.84 C410.42,153.47 414.71,154.53 415.13,155.21 C416.28,157.07 415.27,157.47 413.37,155.89 C412.07,154.81 407.73,154.51 394.09,154.56 C379.00,154.61 374.72,155.00 364.00,157.28 C340.17,162.35 328.73,166.86 333.01,169.51 C334.49,170.42 345.67,185.46 347.49,188.98 ZM 182.32 327.75 C186.79,332.29 190.20,336.00 189.88,336.00 C189.57,336.00 188.50,335.10 187.50,334.00 C186.50,332.90 185.19,332.00 184.57,332.00 C183.95,332.00 181.97,330.65 180.16,329.00 C178.35,327.35 176.53,326.00 176.11,326.00 C175.69,326.00 174.26,324.78 172.92,323.28 C171.59,321.78 171.29,321.16 172.25,321.90 C175.22,324.18 174.22,321.74 168.50,312.72 C162.64,303.48 162.42,303.00 164.06,303.00 C164.64,303.00 164.84,303.45 164.50,304.01 C164.15,304.56 164.57,305.28 165.43,305.61 C166.29,305.94 166.78,306.55 166.52,306.97 C165.67,308.35 174.03,319.34 182.32,327.75 ZM 444.32 251.90 C442.58,253.52 441.00,256.04 440.82,257.52 C440.44,260.67 439.00,259.72 439.00,256.31 C439.00,254.77 439.80,253.65 441.29,253.08 C442.55,252.60 444.22,251.44 445.00,250.50 C446.23,249.01 446.18,248.38 444.62,245.65 L 442.82 242.50 L 445.44 244.95 C447.61,246.98 449.06,247.40 453.78,247.37 C456.93,247.35 460.40,246.97 461.50,246.52 C463.12,245.86 463.27,245.95 462.28,247.02 C461.32,248.06 461.43,248.63 462.78,249.75 C464.37,251.05 464.35,251.10 462.50,250.38 C461.40,249.95 457.58,249.46 454.00,249.28 C447.98,248.99 447.26,249.18 444.32,251.90 ZM 439.89 180.50 C439.84,183.25 439.45,186.62 439.02,188.00 C438.56,189.46 438.44,187.58 438.72,183.50 C439.38,174.01 436.66,166.68 431.01,162.70 C427.12,159.96 424.09,158.79 420.94,158.83 C420.09,158.84 418.84,157.98 418.18,156.92 C416.47,154.17 418.23,154.40 425.57,157.87 C435.59,162.61 440.10,169.73 439.89,180.50 ZM 70.32 252.99 C71.87,253.62 72.02,253.89 70.85,253.94 C69.95,253.97 68.15,252.88 66.85,251.52 C64.84,249.39 63.59,249.03 58.24,249.02 C54.79,249.01 51.15,249.51 50.15,250.14 C48.78,250.99 47.84,250.99 46.41,250.13 C44.72,249.11 44.81,249.04 47.14,249.57 C50.50,250.32 52.02,248.22 49.46,246.35 C48.45,245.61 48.13,245.00 48.75,245.00 C49.37,245.00 50.16,245.45 50.50,246.00 C50.84,246.55 54.28,247.00 58.15,247.00 C64.19,247.00 65.46,246.68 67.15,244.75 L 69.12 242.50 L 67.49 245.18 C65.57,248.34 66.73,251.55 70.32,252.99 ZM 427.98 179.92 C427.97,178.84 427.78,178.80 427.18,179.74 C426.67,180.55 425.73,179.13 424.52,175.74 C423.48,172.86 421.82,169.15 420.82,167.50 C419.82,165.85 419.02,164.05 419.03,163.50 C419.05,162.95 419.52,163.30 420.09,164.27 C420.66,165.25 421.49,165.81 421.95,165.53 C422.40,165.25 423.32,166.37 424.01,168.01 C424.69,169.66 425.66,171.00 426.18,171.00 C426.70,171.00 426.87,171.40 426.57,171.89 C426.26,172.39 426.71,174.46 427.57,176.50 C428.42,178.54 428.87,180.47 428.56,180.77 C428.25,181.08 427.99,180.70 427.98,179.92 ZM 80.14 339.43 C80.59,341.05 80.78,342.56 80.55,342.78 C79.53,343.80 77.84,334.07 78.32,329.99 C79.08,323.49 83.03,313.31 84.07,315.16 C84.58,316.07 83.99,318.47 82.49,321.56 C79.87,326.96 78.84,334.82 80.14,339.43 ZM 257.98 443.90 C257.98,446.43 257.53,449.17 257.00,450.00 C256.31,451.06 256.03,449.80 256.02,445.66 C256.00,440.87 255.60,439.47 253.75,437.85 L 251.50 435.89 L 253.79 437.00 C256.83,438.48 259.90,437.38 261.03,434.41 C261.82,432.34 262.55,432.02 266.23,432.17 L 270.50 432.35 L 266.25 432.73 C263.65,432.97 262.00,433.61 262.00,434.40 C262.00,435.11 261.10,436.50 260.00,437.50 C258.56,438.80 258.00,440.59 257.98,443.90 ZM 258.17 48.59 C258.35,52.12 258.16,55.00 257.75,55.00 C257.34,55.00 257.00,54.33 257.00,53.50 C257.00,52.67 256.66,52.00 256.25,52.00 C255.84,52.00 255.66,49.51 255.84,46.47 C256.07,42.88 255.72,40.33 254.84,39.22 C253.65,37.69 253.68,37.64 255.16,38.80 C256.28,39.67 257.03,39.75 257.47,39.05 C258.73,37.02 260.09,37.97 258.95,40.09 C258.34,41.23 257.99,45.06 258.17,48.59 ZM 316.00 155.00 C316.07,155.13 316.13,155.25 316.19,155.36 C316.59,156.09 316.84,156.56 316.72,156.69 C316.51,156.92 315.11,156.05 311.18,153.64 C310.84,153.43 310.48,153.21 310.11,152.98 C302.29,148.17 301.06,147.03 306.85,149.95 C309.24,151.15 311.85,151.89 312.65,151.58 C313.46,151.27 313.83,151.46 313.49,152.01 C313.16,152.56 313.34,153.00 313.91,153.00 C314.47,153.00 315.41,153.90 316.00,155.00 ZM 314.55 344.52 C314.50,346.72 310.00,352.25 310.00,350.10 C310.00,349.56 310.45,348.84 311.00,348.50 C312.84,347.37 312.03,346.18 309.75,346.67 C307.52,347.14 307.52,347.13 309.50,345.50 C313.54,342.18 314.59,341.97 314.55,344.52 ZM 388.65 247.85 C393.15,248.71 392.86,248.78 384.50,248.78 C376.64,248.79 376.03,248.67 379.65,247.85 C382.21,247.28 385.66,247.28 388.65,247.85 ZM 142.00 250.31 C142.00,250.56 140.35,252.02 138.33,253.56 C136.31,255.10 134.97,255.85 135.36,255.23 C136.15,253.95 142.00,249.62 142.00,250.31 Z" fill="rgb(81,118,237)"/>
<path d="M 300.33 427.92 C300.67,427.84 301.01,427.75 301.35,427.66 C292.65,429.96 283.96,431.65 276.00,432.52 C267.31,433.47 266.57,433.76 265.25,436.71 C264.56,438.24 262.65,441.02 261.00,442.89 C258.80,445.37 258.00,447.27 258.00,450.03 C258.00,452.45 257.47,453.99 256.50,454.36 C255.68,454.68 255.00,455.63 255.00,456.47 C255.00,457.31 254.55,458.00 254.00,458.00 C253.45,458.00 253.00,457.13 253.00,456.06 C253.00,454.99 253.45,453.84 254.00,453.50 C254.55,453.16 255.00,450.94 255.00,448.56 C255.00,444.79 254.49,443.77 251.07,440.68 C248.91,438.73 246.67,436.26 246.10,435.19 C245.29,433.67 243.55,433.09 238.28,432.57 C229.19,431.68 219.84,429.86 210.33,427.14 C211.22,427.39 212.11,427.63 213.00,427.87 C221.08,430.03 222.88,430.17 227.50,429.00 C229.24,428.56 229.91,428.37 229.59,428.26 C232.73,428.57 236.72,428.83 239.68,428.88 C246.39,428.99 246.88,428.85 247.23,426.75 C247.43,425.51 246.77,422.80 245.76,420.72 C244.75,418.63 244.19,416.50 244.52,415.97 C244.85,415.43 244.43,415.00 243.58,415.00 C242.73,415.00 241.15,413.26 240.07,411.13 C238.98,409.01 236.92,405.87 235.48,404.15 C234.04,402.44 233.14,400.58 233.49,400.01 C233.84,399.45 233.42,398.72 232.56,398.39 C231.70,398.06 231.00,397.16 231.00,396.39 C231.00,395.63 230.48,395.00 229.83,395.00 C229.19,395.00 228.92,394.75 229.23,394.44 C229.54,394.13 228.71,392.71 227.40,391.29 C226.08,389.87 225.00,388.28 225.00,387.76 C225.00,387.24 224.11,385.68 223.01,384.29 C221.92,382.90 221.24,381.41 221.51,380.99 C221.77,380.56 221.29,379.94 220.43,379.61 C219.57,379.28 219.15,378.56 219.50,378.01 C219.84,377.45 219.64,377.00 219.06,377.00 C218.48,377.00 218.00,376.33 218.00,375.50 C218.00,374.67 217.48,374.00 216.83,374.00 C216.19,374.00 215.92,373.75 216.23,373.44 C216.54,373.13 215.69,371.78 214.34,370.43 C212.99,369.08 212.17,367.54 212.51,366.99 C212.84,366.45 212.61,366.00 212.00,366.00 C211.39,366.00 211.15,365.57 211.47,365.05 C211.79,364.53 211.13,363.61 210.00,363.00 C208.87,362.39 208.21,361.47 208.53,360.95 C209.76,358.96 197.16,359.35 193.14,361.43 C191.41,362.32 186.96,363.45 183.25,363.94 C179.54,364.42 174.83,365.53 172.78,366.41 C170.74,367.28 166.86,368.00 164.16,368.00 C161.47,368.00 156.39,368.92 152.88,370.05 C149.08,371.27 145.26,371.88 143.43,371.54 C139.04,370.73 134.74,371.83 131.40,374.59 L 128.51 376.98 C121.33,371.00 119.94,371.57 128.30,379.65 C131.93,383.17 135.62,386.50 139.37,389.66 C138.22,388.70 137.05,387.72 135.87,386.71 C120.63,373.70 119.18,372.91 112.06,373.65 C108.32,374.04 104.72,373.70 101.07,372.61 C98.08,371.73 93.41,371.00 90.69,371.00 C87.60,371.00 84.56,370.29 82.62,369.11 C80.90,368.08 78.38,366.89 77.01,366.47 C75.65,366.06 71.94,362.97 68.78,359.61 C62.59,353.03 60.00,347.39 60.00,340.48 C60.00,335.50 63.33,321.98 65.63,317.62 C71.25,306.95 75.14,298.58 75.14,297.15 C75.15,291.82 74.16,281.24 73.51,279.71 C73.09,278.72 73.03,277.64 73.37,277.30 C73.71,276.96 73.52,276.12 72.95,275.44 C71.81,274.06 72.70,269.00 74.09,269.00 C75.00,269.00 76.29,272.94 75.90,274.56 C75.78,275.08 75.95,276.17 76.28,277.00 C76.61,277.83 77.39,281.09 78.01,284.25 C79.12,289.90 81.10,291.80 82.38,288.45 C82.71,287.61 84.67,286.20 86.74,285.34 C88.81,284.48 92.35,282.08 94.60,280.00 C96.86,277.93 99.67,275.92 100.85,275.55 C102.03,275.17 103.00,274.46 103.00,273.96 C103.00,273.46 100.19,270.98 96.75,268.46 C95.70,267.69 94.72,266.97 93.79,266.29 C82.21,257.78 79.24,255.59 77.32,256.29 C76.50,256.59 75.87,257.41 74.85,258.48 C73.56,259.85 72.14,260.97 71.69,260.98 C71.25,260.99 68.90,259.14 66.47,256.86 C59.28,250.12 58.35,249.68 52.85,250.33 C51.68,250.47 50.55,250.52 49.51,250.49 C49.71,250.39 49.93,250.28 50.15,250.14 C51.15,249.51 54.79,249.01 58.24,249.02 C63.59,249.03 64.84,249.39 66.85,251.52 C68.15,252.88 69.95,253.97 70.85,253.94 C72.02,253.89 71.87,253.62 70.32,252.99 C66.73,251.55 65.57,248.34 67.49,245.18 L 69.12 242.50 L 67.15 244.75 C65.46,246.68 64.19,247.00 58.15,247.00 C56.48,247.00 54.89,246.92 53.59,246.78 C56.27,246.57 60.05,245.40 62.39,243.75 C68.31,239.60 72.14,235.01 71.46,232.89 C70.76,230.67 72.69,227.69 74.21,228.63 C74.78,228.98 74.92,231.06 74.54,233.56 C74.00,237.21 74.20,238.04 75.86,238.92 C77.95,240.04 82.34,237.50 93.69,228.58 C96.55,226.34 100.82,223.11 103.19,221.41 C105.56,219.71 114.03,213.51 122.00,207.65 C129.98,201.78 140.77,193.98 146.00,190.30 C151.23,186.63 155.73,183.34 156.00,183.00 C156.27,182.66 160.65,179.48 165.73,175.94 C170.80,172.40 176.84,168.15 179.14,166.50 C181.44,164.85 184.03,163.04 184.91,162.49 C190.77,158.76 192.67,157.30 193.98,155.52 C194.80,154.41 195.32,153.33 195.15,153.11 C194.97,152.90 195.23,152.45 195.72,152.11 C196.74,151.41 200.86,145.42 206.97,135.75 C209.31,132.04 211.71,129.00 212.28,129.00 C212.86,129.00 213.06,128.73 212.72,128.39 C211.97,127.64 216.77,119.81 218.67,118.69 C219.42,118.24 219.78,117.45 219.46,116.94 C219.14,116.42 219.43,116.00 220.11,116.00 C220.78,116.00 221.05,115.72 220.71,115.37 C219.78,114.45 222.67,109.34 224.53,108.63 C225.41,108.29 225.85,107.56 225.50,107.01 C225.16,106.45 225.36,106.00 225.94,106.00 C226.52,106.00 227.00,105.49 227.00,104.86 C227.00,102.74 243.42,77.06 244.09,78.14 C244.54,78.88 244.98,78.84 245.50,77.99 C245.92,77.32 245.64,76.34 244.88,75.79 C243.81,75.03 243.90,74.94 245.25,75.37 C247.23,76.01 247.67,74.46 245.75,73.61 C245.06,73.31 245.35,73.16 246.40,73.28 C247.44,73.40 248.51,72.87 248.78,72.11 C249.07,71.26 248.82,70.99 248.13,71.42 C247.51,71.80 247.00,71.61 247.00,70.99 C247.00,70.31 247.81,70.12 249.03,70.51 C250.88,71.10 250.85,70.94 248.68,68.77 C247.37,67.46 246.10,65.79 245.85,65.06 C245.55,64.16 243.59,63.75 239.71,63.78 C236.57,63.81 234.00,63.42 234.00,62.92 C234.00,61.68 228.87,61.78 227.00,63.05 C225.90,63.80 226.58,63.94 229.50,63.58 C233.38,63.10 233.36,63.12 229.00,64.12 C210.45,68.36 205.50,69.66 198.00,72.22 C184.75,76.74 165.09,86.71 153.63,94.71 C128.46,112.29 104.09,141.54 91.30,169.50 C83.77,185.99 77.53,206.89 76.30,219.78 C75.74,225.71 74.69,228.02 73.22,226.55 C72.31,225.65 72.78,216.99 73.81,215.62 C74.28,215.00 74.71,212.48 74.79,210.01 C74.86,207.55 75.38,205.37 75.95,205.18 C76.53,204.99 76.72,203.75 76.39,202.42 C76.06,201.09 76.17,200.00 76.64,200.00 C77.11,200.00 77.55,198.60 77.61,196.89 C77.67,195.19 78.12,193.50 78.61,193.14 C79.10,192.79 79.66,191.38 79.85,190.00 C80.05,188.62 80.65,187.22 81.19,186.89 C81.73,186.55 82.13,185.99 82.09,185.64 C82.04,185.29 82.06,184.77 82.12,184.50 L 82.50 183.00 C82.64,182.45 82.86,181.77 83.00,181.50 C83.14,181.23 83.34,180.66 83.44,180.25 C84.79,174.93 86.59,170.29 87.65,169.40 C88.37,168.80 88.68,168.01 88.32,167.65 C87.96,167.29 88.22,167.00 88.89,167.00 C89.57,167.00 89.87,166.60 89.57,166.12 C88.94,165.10 96.42,151.00 98.39,149.50 C99.11,148.95 99.79,148.05 99.90,147.50 C100.32,145.36 103.99,140.00 105.03,140.00 C105.63,140.00 105.87,139.60 105.56,139.10 C105.26,138.61 106.36,136.76 108.00,135.00 C109.65,133.23 111.00,131.51 111.00,131.18 C111.00,130.84 111.86,129.65 112.91,128.54 C119.25,121.79 120.71,120.05 120.33,119.67 C119.71,119.04 138.86,101.62 141.09,100.78 C142.14,100.39 143.00,99.70 143.00,99.25 C143.00,98.25 152.57,91.00 153.89,91.00 C154.41,91.00 154.98,90.61 155.17,90.13 C156.19,87.45 183.72,73.00 187.80,73.00 C189.01,73.00 190.00,72.60 190.00,72.12 C190.00,71.64 191.24,70.75 192.75,70.15 C197.49,68.26 213.36,63.90 216.60,63.60 C218.31,63.43 220.11,63.06 220.60,62.77 C221.10,62.48 225.55,61.71 230.50,61.05 C242.79,59.43 245.19,59.18 245.95,57.93 C246.18,57.55 246.26,57.09 246.42,56.48 C246.76,55.12 248.83,52.82 251.02,51.37 C254.65,48.97 255.00,48.35 255.00,44.37 C255.00,41.97 254.59,40.00 254.10,40.00 C252.67,40.00 253.42,34.66 255.20,32.12 L 256.83 29.80 L 258.01 32.02 C258.90,33.68 258.91,34.06 258.03,33.52 C256.58,32.62 254.03,35.92 254.75,37.78 C255.09,38.67 256.11,38.94 257.69,38.54 C257.75,38.53 257.81,38.51 257.87,38.50 C257.74,38.65 257.60,38.83 257.47,39.05 C257.03,39.75 256.28,39.67 255.16,38.80 C253.68,37.64 253.65,37.69 254.84,39.22 C255.72,40.33 256.07,42.88 255.84,46.47 C255.66,49.51 255.84,52.00 256.25,52.00 C256.66,52.00 257.00,52.67 257.00,53.50 C257.00,54.33 257.34,55.00 257.75,55.00 C258.16,55.00 258.35,52.12 258.17,48.59 C258.13,47.90 258.12,47.19 258.12,46.50 C258.31,48.15 258.79,49.58 259.55,50.21 C263.26,53.30 266.00,56.15 266.00,56.92 C266.00,58.53 272.54,60.49 276.75,60.16 C279.27,59.96 281.00,60.25 281.00,60.87 C281.00,61.45 282.24,61.91 283.75,61.90 C285.26,61.90 287.85,62.13 289.50,62.43 C291.15,62.73 293.41,63.11 294.52,63.28 C295.63,63.45 297.09,63.94 297.77,64.36 C298.45,64.78 299.45,64.84 300.00,64.50 C300.55,64.16 301.56,64.23 302.25,64.67 C302.94,65.10 304.61,65.60 305.98,65.79 C307.34,65.98 309.02,66.60 309.73,67.19 C310.43,67.77 311.00,67.91 311.00,67.50 C311.00,67.09 311.60,67.26 312.34,67.87 C313.08,68.48 313.91,68.76 314.19,68.48 C314.44,68.23 316.79,68.96 320.12,70.23 C317.06,69.18 315.51,69.09 314.85,69.75 C314.23,70.37 316.14,71.54 320.19,73.01 C321.02,73.31 321.94,73.67 322.92,74.07 C322.58,73.95 322.25,73.82 321.91,73.69 C305.11,67.37 273.74,61.79 268.48,64.19 C267.18,64.79 265.87,65.89 265.58,66.65 C264.93,68.34 266.95,73.00 268.33,73.00 C268.88,73.00 269.07,73.26 268.75,73.59 C268.42,73.91 269.92,76.91 272.08,80.24 C276.30,86.78 276.56,87.53 274.93,88.54 C273.75,89.28 271.99,87.24 269.30,82.00 C268.31,80.07 267.05,78.17 266.50,77.77 C265.95,77.36 265.87,77.02 266.33,77.02 C266.78,77.01 265.76,75.83 264.06,74.40 C258.06,69.35 258.00,69.62 258.00,103.86 L 258.00 134.78 L 260.50 135.41 C261.88,135.76 264.02,135.78 265.26,135.47 C267.93,134.80 280.56,136.96 294.45,140.47 C304.82,143.08 307.00,142.74 304.90,138.80 C304.36,137.81 304.15,137.00 304.42,137.00 C304.69,137.00 303.81,135.82 302.47,134.37 C301.13,132.93 300.28,131.35 300.58,130.87 C300.87,130.39 300.61,130.00 300.00,130.00 C299.39,130.00 299.16,129.55 299.50,129.00 C299.84,128.45 299.68,128.00 299.15,128.00 C297.81,128.00 291.93,118.93 292.58,117.87 C292.88,117.39 292.71,117.00 292.20,117.00 C291.21,117.00 284.00,105.80 284.00,104.25 C284.00,103.74 282.88,102.00 281.50,100.41 C280.13,98.81 279.00,96.97 279.00,96.33 C279.00,95.69 278.44,94.94 277.75,94.66 C277.06,94.38 277.40,94.12 278.50,94.08 C280.55,94.00 281.37,95.19 304.93,132.50 C313.24,145.67 314.11,146.68 319.63,149.66 C324.82,152.46 326.26,152.79 332.00,152.50 C342.19,151.99 352.33,150.26 358.68,147.96 C361.88,146.80 365.96,145.68 367.73,145.47 C369.51,145.26 373.31,144.39 376.17,143.54 C379.02,142.69 382.58,142.00 384.06,142.00 C385.54,142.00 388.37,141.32 390.35,140.50 C392.32,139.68 395.75,139.00 397.97,139.00 C405.28,139.00 403.55,135.49 388.04,118.90 C386.65,117.41 385.23,115.95 383.78,114.50 C393.62,124.07 401.76,133.77 405.41,140.82 C406.98,143.87 406.97,143.97 404.76,144.41 C403.52,144.67 398.55,145.13 393.73,145.44 C385.03,146.01 365.63,149.68 357.00,152.39 C350.21,154.52 353.13,154.27 362.31,151.92 C373.24,149.13 394.89,146.01 403.37,146.00 C409.01,146.00 410.04,145.76 409.13,144.66 C408.52,143.92 408.27,143.06 408.58,142.75 C409.42,141.92 407.15,137.85 402.77,132.15 C406.05,136.04 407.79,137.27 410.50,137.98 C412.70,138.56 416.69,139.70 419.36,140.52 C422.04,141.33 425.92,142.00 427.99,142.00 C430.12,142.00 432.30,142.65 433.00,143.50 C433.68,144.32 434.98,145.01 435.87,145.02 C439.30,145.07 446.07,149.04 450.37,153.52 C454.21,157.54 455.08,159.25 456.51,165.69 C458.92,176.51 457.07,189.72 452.37,195.33 C451.07,196.88 450.00,198.68 450.00,199.33 C450.01,199.97 448.40,203.68 446.43,207.56 C443.33,213.67 442.73,216.06 441.92,225.35 L 440.99 236.08 L 446.75 241.50 C450.84,245.37 453.36,246.97 455.50,247.08 C456.43,247.13 457.12,247.17 457.67,247.18 C456.45,247.29 455.09,247.36 453.78,247.37 C449.06,247.40 447.61,246.98 445.44,244.95 L 442.82 242.50 L 444.62 245.65 C444.67,245.74 444.72,245.82 444.77,245.91 C443.22,244.19 440.67,242.00 439.95,242.00 C439.54,242.00 438.27,243.57 437.13,245.50 C436.00,247.43 435.43,249.00 435.87,249.00 C436.32,249.00 437.18,250.09 437.78,251.42 C438.54,253.09 439.33,253.63 440.68,253.36 C439.58,253.99 439.00,255.00 439.00,256.31 C439.00,259.72 440.44,260.67 440.82,257.52 C441.00,256.04 442.58,253.52 444.32,251.90 C447.26,249.18 447.98,248.99 454.00,249.28 C454.68,249.32 455.36,249.36 456.03,249.41 C453.61,249.92 450.96,251.44 448.37,253.88 C446.10,256.01 443.56,258.15 442.72,258.63 C441.67,259.23 440.69,262.96 439.59,270.50 C437.61,284.15 432.52,304.57 429.27,311.92 C427.16,316.70 426.69,317.20 425.80,315.60 C425.23,314.59 425.16,313.48 425.63,313.13 C426.11,312.78 426.66,311.60 426.85,310.50 C427.04,309.40 427.70,308.19 428.32,307.80 C428.94,307.42 429.16,306.82 428.81,306.48 C428.11,305.78 430.73,297.21 432.23,295.29 C432.75,294.63 432.88,293.62 432.53,293.04 C432.17,292.47 432.41,292.00 433.05,292.00 C433.80,292.00 433.99,291.10 433.59,289.50 C433.21,287.98 433.39,287.00 434.05,287.00 C434.68,287.00 434.87,286.16 434.50,285.00 C434.12,283.79 434.32,283.00 435.01,283.00 C435.76,283.00 435.94,281.98 435.52,280.10 C435.14,278.36 435.33,276.91 436.00,276.50 C436.68,276.08 436.86,274.63 436.45,272.78 C436.04,270.91 436.22,269.48 436.92,269.05 C437.69,268.57 437.84,266.49 437.39,262.63 C436.27,253.14 435.52,253.30 417.35,266.83 C408.63,273.32 393.40,284.64 383.50,291.99 C358.30,310.69 348.91,318.29 345.10,323.03 C343.28,325.29 341.57,326.90 341.28,326.61 C340.60,325.93 338.94,327.70 336.26,332.00 C335.06,333.92 333.83,335.37 333.52,335.21 C332.56,334.71 327.00,338.37 327.00,339.49 C327.00,340.89 323.42,343.91 320.07,345.35 C315.79,347.20 311.15,353.19 296.53,375.73 C288.76,387.70 282.30,396.69 281.72,396.33 C281.12,395.96 280.99,396.18 281.42,396.86 C282.57,398.73 278.21,405.00 276.20,404.36 C274.87,403.93 274.80,404.02 275.88,404.79 C276.66,405.35 276.92,406.31 276.49,407.02 C275.90,407.97 275.53,407.90 274.88,406.75 C274.33,405.77 274.82,403.86 276.27,401.27 C279.28,395.89 287.16,384.58 288.18,384.17 C288.63,383.98 289.00,383.20 289.00,382.42 C289.00,381.64 289.38,381.00 289.83,381.00 C290.29,381.00 290.67,380.43 290.67,379.73 C290.67,377.88 295.92,370.25 297.65,369.58 C298.46,369.27 298.85,368.56 298.50,368.01 C298.16,367.45 298.43,367.00 299.11,367.00 C299.78,367.00 300.06,366.73 299.74,366.40 C299.41,366.07 300.51,363.58 302.19,360.85 C303.86,358.13 304.95,355.62 304.61,355.28 C304.27,354.93 300.28,355.83 295.74,357.27 C291.21,358.71 286.04,360.12 284.25,360.42 C282.46,360.71 279.00,361.86 276.55,362.98 C273.94,364.17 270.00,365.00 266.99,365.00 C266.47,365.00 265.97,364.99 265.51,364.99 C263.17,364.96 261.55,364.95 260.44,365.68 C257.97,367.32 257.98,372.68 258.00,389.92 C258.00,391.46 258.00,393.09 258.00,394.82 C258.00,420.74 258.12,422.58 259.78,422.71 C260.79,422.78 262.59,421.35 263.91,419.42 C265.20,417.54 266.68,416.00 267.19,416.00 C267.70,416.00 267.86,415.58 267.54,415.07 C266.74,413.77 268.50,412.87 270.41,413.61 C271.75,414.12 271.42,415.03 268.43,419.09 C266.22,422.10 264.98,424.83 265.18,426.23 C265.47,428.28 266.12,428.53 271.87,428.80 C275.19,428.96 279.21,428.72 283.65,428.15 L 286.00 428.95 C289.88,430.27 291.57,430.15 300.33,427.92 ZM 227.50 337.32 C231.43,336.43 234.28,335.73 237.47,334.72 C233.68,336.10 229.92,337.42 226.20,338.68 C214.03,342.81 209.10,344.05 206.70,343.59 C199.75,342.25 178.09,323.35 171.36,312.75 C168.76,308.67 167.20,307.62 169.12,311.25 C173.67,319.87 186.80,333.19 198.26,340.81 L 205.18 345.41 L 201.34 346.76 C194.66,349.11 170.99,354.67 157.50,357.06 C147.49,358.83 140.60,359.38 127.50,359.43 C109.40,359.49 102.42,358.49 93.42,354.51 C88.84,352.48 80.77,346.05 82.72,345.97 C83.15,345.95 82.73,345.35 81.79,344.64 C79.48,342.88 78.00,338.70 78.00,333.90 L 78.00 329.92 L 75.81 331.96 C74.61,333.08 73.13,334.00 72.53,334.00 C71.12,334.00 67.99,330.35 68.75,329.58 C69.07,329.26 68.86,329.00 68.28,329.00 C66.82,329.00 66.03,332.54 66.04,339.00 C66.04,344.59 68.17,350.49 71.68,354.65 C74.05,357.45 84.58,364.09 85.38,363.29 C85.72,362.95 86.00,363.10 86.00,363.64 C86.00,364.17 87.59,364.65 89.53,364.70 C91.47,364.76 93.61,365.22 94.28,365.73 C94.95,366.24 99.10,366.77 103.49,366.91 C107.89,367.04 111.71,367.38 111.99,367.65 C112.67,368.34 129.12,367.17 143.17,365.44 C160.67,363.28 192.72,355.89 208.06,350.48 C211.33,349.32 212.62,349.27 214.34,350.23 C215.53,350.89 216.84,351.33 217.25,351.21 C217.66,351.10 218.00,351.48 218.00,352.06 C218.00,352.64 218.42,352.86 218.93,352.54 C219.44,352.23 220.15,352.43 220.50,353.00 C220.85,353.57 221.56,353.77 222.07,353.46 C222.58,353.14 223.00,353.41 223.00,354.05 C223.00,354.69 223.65,354.97 224.44,354.66 C225.22,354.36 226.01,354.50 226.19,354.98 C226.36,355.46 227.80,356.17 229.38,356.57 C234.77,357.90 231.72,354.82 225.45,352.60 C221.79,351.30 219.50,349.92 219.50,349.00 C219.50,348.07 222.30,346.44 227.00,344.64 C250.56,335.62 277.88,324.43 285.84,320.53 C290.87,318.06 296.22,315.75 297.74,315.40 C298.77,315.16 300.50,314.48 302.20,313.68 C290.53,319.92 283.46,323.29 275.50,326.53 C270.55,328.55 265.15,330.80 263.50,331.53 C261.85,332.26 254.65,335.21 247.50,338.09 C227.14,346.27 226.51,347.66 241.00,352.36 C243.76,353.25 259.98,353.01 269.65,351.93 C296.60,348.93 323.24,331.50 340.94,305.30 C344.88,299.47 346.00,296.95 346.00,293.91 C346.00,291.76 345.54,290.00 344.98,290.00 C344.56,290.00 342.31,291.14 339.50,292.75 C341.32,291.59 342.63,290.67 343.50,289.94 C344.60,289.02 347.58,287.07 350.13,285.61 C354.17,283.29 354.85,283.15 355.38,284.55 C355.72,285.44 355.32,287.13 354.50,288.30 C353.67,289.48 353.00,290.98 353.00,291.63 C353.00,292.28 351.45,295.55 349.55,298.90 C347.66,302.26 346.34,305.00 346.63,305.00 C346.92,305.00 345.56,306.87 343.61,309.14 C341.66,311.42 340.34,313.74 340.68,314.30 C341.03,314.85 340.85,315.02 340.28,314.67 C339.71,314.32 337.98,315.86 336.44,318.09 C334.89,320.32 332.82,322.71 331.84,323.40 C330.87,324.08 328.70,326.36 327.03,328.46 C325.36,330.56 323.99,331.88 323.98,331.39 C323.98,330.90 323.64,330.98 323.23,331.57 C322.83,332.16 319.35,335.00 315.50,337.89 C311.65,340.78 307.71,343.79 306.74,344.57 C305.77,345.35 304.65,345.93 304.24,345.84 C303.83,345.76 300.58,347.05 297.00,348.72 C286.15,353.77 278.99,355.80 268.07,356.94 C262.33,357.54 257.48,358.19 257.28,358.38 C257.09,358.58 259.72,359.05 263.12,359.43 C267.51,359.93 269.51,359.79 270.04,358.93 C270.50,358.19 271.79,357.98 273.39,358.38 C275.06,358.80 276.00,358.63 276.00,357.90 C276.00,357.26 276.87,356.99 278.00,357.29 C279.10,357.58 280.00,357.35 280.00,356.79 C280.00,356.23 280.90,356.00 282.00,356.29 C283.10,356.58 284.00,356.35 284.00,355.79 C284.00,355.23 284.90,355.00 286.00,355.29 C287.10,355.58 288.00,355.36 288.00,354.80 C288.00,354.24 288.67,354.05 289.50,354.36 C290.33,354.68 291.00,354.46 291.00,353.89 C291.00,353.31 291.56,353.02 292.24,353.25 C292.92,353.47 294.11,353.04 294.87,352.27 C295.63,351.51 296.87,351.12 297.63,351.41 C298.38,351.70 299.00,351.57 299.00,351.12 C299.00,350.67 300.90,349.45 303.23,348.40 C305.55,347.36 310.07,344.81 313.26,342.75 C316.45,340.69 319.49,339.00 320.01,339.00 C320.53,339.00 321.69,337.88 322.59,336.50 C323.49,335.12 324.84,334.00 325.59,334.00 C326.33,334.00 327.94,332.65 329.16,331.00 C330.38,329.35 331.79,328.00 332.29,328.00 C333.52,328.00 339.19,321.86 338.54,321.21 C338.26,320.93 338.81,320.13 339.77,319.43 C340.72,318.73 341.51,317.79 341.52,317.33 C341.54,316.87 342.76,315.21 344.25,313.62 C345.74,312.04 346.75,310.40 346.49,309.98 C346.23,309.56 346.71,308.94 347.57,308.61 C348.43,308.28 348.85,307.56 348.50,307.01 C348.16,306.45 348.39,306.00 349.00,306.00 C349.61,306.00 349.84,305.55 349.50,305.00 C349.16,304.45 349.39,304.00 350.00,304.00 C350.61,304.00 350.84,303.55 350.50,303.00 C350.16,302.45 350.39,302.00 351.00,302.00 C351.61,302.00 351.84,301.55 351.50,301.00 C351.16,300.45 351.39,300.00 352.00,300.00 C352.61,300.00 352.84,299.55 352.50,299.00 C352.16,298.45 352.39,298.00 353.00,298.00 C353.61,298.00 353.84,297.55 353.50,297.00 C353.16,296.45 353.43,296.00 354.11,296.00 C354.78,296.00 355.05,295.72 354.71,295.38 C354.37,295.04 354.77,294.08 355.61,293.25 C356.44,292.42 356.88,291.13 356.59,290.37 C356.30,289.62 356.55,289.00 357.14,289.00 C357.73,289.00 357.95,288.33 357.64,287.50 C357.32,286.67 357.55,286.00 358.14,286.00 C358.73,286.00 358.95,285.33 358.64,284.50 C358.32,283.67 358.52,283.00 359.08,283.00 C359.63,283.00 359.96,282.27 359.79,281.39 C359.60,280.30 363.63,276.95 372.22,271.06 C395.72,254.96 416.63,237.12 428.47,223.08 C431.75,219.19 435.01,216.00 435.72,216.00 C436.42,216.00 437.00,215.32 437.00,214.50 C437.00,213.68 437.38,213.00 437.83,213.00 C438.29,213.00 438.67,212.42 438.67,211.72 C438.67,209.98 442.00,205.00 443.17,205.00 C443.69,205.00 443.87,204.60 443.56,204.10 C443.26,203.61 443.71,202.94 444.57,202.61 C445.43,202.28 445.85,201.56 445.50,201.01 C445.16,200.45 445.39,200.00 446.00,200.00 C446.61,200.00 446.84,199.55 446.50,199.00 C446.16,198.45 446.39,198.00 447.00,198.00 C447.61,198.00 447.84,197.55 447.50,197.00 C447.16,196.45 447.39,196.00 448.00,196.00 C448.61,196.00 448.84,195.55 448.50,195.00 C448.16,194.45 448.41,194.00 449.05,194.00 C449.69,194.00 449.95,193.32 449.64,192.50 C449.32,191.68 449.48,191.00 450.00,191.00 C450.52,191.00 450.68,190.32 450.36,189.50 C450.05,188.68 450.31,188.00 450.95,188.00 C451.59,188.00 451.84,187.55 451.50,187.00 C451.16,186.45 451.41,186.00 452.05,186.00 C452.80,186.00 452.99,185.10 452.59,183.50 C452.23,182.06 452.39,181.00 452.98,181.00 C453.55,181.00 454.00,178.57 454.00,175.50 C454.00,169.52 453.32,168.88 450.41,172.10 C448.85,173.82 447.75,174.10 444.37,173.64 L 440.24 173.07 L 439.90 180.23 C440.02,169.62 435.51,162.57 425.57,157.87 C418.23,154.40 416.47,154.17 418.18,156.92 C418.84,157.98 420.09,158.84 420.94,158.83 C424.09,158.79 427.12,159.96 431.01,162.70 C436.66,166.68 439.38,174.01 438.72,183.50 C438.44,187.58 438.56,189.46 439.02,188.00 C439.31,187.08 439.58,185.25 439.74,183.31 C439.37,189.69 438.67,192.16 435.80,198.22 C429.63,211.19 422.41,220.79 408.10,235.02 C392.00,251.03 363.19,273.52 361.26,271.59 C360.87,271.21 361.17,270.51 361.91,270.06 C362.88,269.46 363.06,268.16 362.56,265.46 C362.07,262.83 362.24,261.47 363.15,260.91 C363.86,260.47 364.15,259.81 363.79,259.45 C362.48,258.15 361.00,260.19 360.99,263.31 C360.98,271.16 359.41,273.61 350.71,279.30 C347.01,281.73 343.13,284.16 339.09,286.60 C347.49,281.37 352.16,277.53 353.60,274.78 C355.67,270.82 358.00,257.56 358.00,249.74 C358.00,242.68 355.48,224.82 354.09,222.08 C353.65,221.21 352.75,218.25 352.08,215.50 C350.68,209.69 344.13,197.14 337.69,187.93 C333.37,181.75 326.09,174.47 314.86,165.10 C299.76,152.50 267.52,143.04 249.84,146.03 C238.22,147.99 222.21,156.98 216.45,164.77 C214.94,166.82 212.26,170.07 210.51,172.00 C208.75,173.93 206.17,177.52 204.76,180.00 C202.15,184.60 192.24,193.34 186.07,196.48 C182.84,198.13 182.57,198.14 181.40,196.53 C180.58,195.41 179.45,195.04 178.12,195.46 C175.55,196.28 167.33,205.34 167.33,207.36 C167.33,208.20 165.69,212.17 163.69,216.19 C160.00,223.57 158.02,233.58 156.58,252.00 C155.53,265.35 159.60,282.81 167.24,297.75 C175.97,314.82 182.31,322.14 197.26,332.37 C209.47,340.73 211.08,341.00 227.50,337.32 ZM 125.25 354.88 C129.66,356.15 129.84,356.16 132.19,354.90 C133.32,354.30 138.12,353.71 142.87,353.59 C148.99,353.44 152.24,352.89 154.06,351.70 C155.84,350.53 158.46,350.07 162.66,350.18 C167.18,350.31 169.55,349.84 172.10,348.30 C173.97,347.18 176.85,345.94 178.49,345.55 C184.46,344.14 184.40,341.36 178.25,335.10 C175.64,332.43 171.70,327.91 169.50,325.03 C167.30,322.16 161.00,316.22 155.50,311.83 C150.00,307.44 144.74,303.24 143.82,302.49 C142.90,301.75 136.90,297.44 130.49,292.91 C120.63,285.94 118.49,284.81 116.61,285.59 C115.38,286.09 110.75,290.39 106.32,295.14 C100.54,301.34 98.08,304.76 97.61,307.28 C97.24,309.22 96.07,311.92 94.99,313.28 C92.33,316.67 91.75,324.38 93.94,327.28 C94.86,328.50 96.22,331.41 96.97,333.75 C97.71,336.09 98.72,338.00 99.22,338.00 C99.71,338.00 99.84,338.45 99.50,339.00 C99.16,339.55 99.36,340.00 99.94,340.00 C100.52,340.00 101.00,340.60 101.00,341.34 C101.00,342.08 102.12,343.19 103.50,343.82 C104.88,344.44 105.99,345.53 105.98,346.23 C105.97,347.10 105.67,347.03 105.00,346.00 C104.47,345.17 104.02,344.98 104.02,345.58 C104.01,346.17 105.11,347.69 106.46,348.96 C108.31,350.70 109.63,351.12 111.84,350.68 C115.13,350.02 122.00,351.60 122.00,353.02 C122.00,353.53 123.46,354.37 125.25,354.88 ZM 427.98 179.92 C427.99,180.70 428.25,181.08 428.56,180.77 C428.87,180.47 428.42,178.54 427.57,176.50 C426.71,174.46 426.26,172.39 426.57,171.89 C426.87,171.40 426.70,171.00 426.18,171.00 C425.66,171.00 424.69,169.66 424.01,168.01 C423.32,166.37 422.40,165.25 421.95,165.53 C421.49,165.81 420.66,165.25 420.09,164.27 C419.52,163.30 419.05,162.95 419.03,163.50 C419.02,164.05 419.82,165.85 420.82,167.50 C421.37,168.40 422.10,169.90 422.83,171.55 C421.67,169.25 420.21,167.39 418.02,165.29 C415.54,162.89 412.60,160.76 411.50,160.54 C410.40,160.33 406.33,159.43 402.45,158.56 C393.76,156.59 377.45,157.36 368.62,160.15 C365.39,161.17 361.88,162.00 360.82,162.00 C359.76,162.00 357.62,162.66 356.06,163.47 C354.49,164.28 351.25,165.24 348.85,165.61 C344.51,166.27 342.00,167.53 342.00,169.05 C342.00,170.45 383.47,202.57 407.50,219.79 C409.15,220.97 410.98,221.95 411.56,221.97 C414.34,222.05 423.61,208.65 424.61,203.11 C424.97,201.12 426.03,197.88 426.96,195.91 C427.90,193.94 428.52,191.46 428.35,190.41 C428.17,189.36 427.91,187.04 427.77,185.25 C427.62,183.47 427.27,182.00 427.00,182.00 C426.72,182.00 425.61,179.22 424.52,175.82 C424.47,175.65 424.42,175.49 424.36,175.33 C424.42,175.47 424.47,175.61 424.52,175.74 C425.73,179.13 426.67,180.55 427.18,179.74 C427.78,178.80 427.97,178.84 427.98,179.92 ZM 256.00 278.73 C256.00,278.03 252.36,275.71 247.91,273.58 C241.03,270.28 239.32,268.94 236.46,264.60 C234.61,261.80 232.60,257.26 231.99,254.53 C231.39,251.79 230.36,249.22 229.70,248.82 C228.79,248.26 228.81,247.79 229.76,246.84 C230.44,246.16 231.00,244.38 231.00,242.89 C231.00,239.84 235.32,230.69 238.41,227.20 C240.71,224.60 247.39,221.39 252.49,220.44 C254.42,220.07 256.08,219.08 256.33,218.15 C256.73,216.64 256.78,216.64 256.88,218.17 C256.96,219.21 258.23,220.10 260.25,220.52 C262.04,220.89 266.27,222.69 269.65,224.52 C273.04,226.36 276.11,227.55 276.49,227.18 C276.86,226.81 277.04,226.95 276.88,227.50 C276.72,228.05 277.30,229.85 278.16,231.50 C279.02,233.15 280.50,236.87 281.45,239.76 C282.40,242.66 283.85,245.71 284.68,246.54 C285.86,247.72 285.94,248.37 285.02,249.48 C284.37,250.26 283.62,252.38 283.34,254.20 C283.06,256.01 281.41,260.53 279.67,264.23 C276.87,270.18 275.97,271.19 272.00,272.90 C269.52,273.96 265.75,275.15 263.61,275.55 C261.48,275.95 258.89,277.11 257.86,278.14 C256.67,279.33 256.00,279.55 256.00,278.73 ZM 80.95 244.90 C82.05,246.96 82.64,247.00 110.00,247.00 C131.11,247.00 138.18,246.69 138.98,245.75 C139.56,245.06 141.15,243.24 142.52,241.70 C144.46,239.51 145.00,237.80 145.00,233.88 C145.00,230.73 145.88,226.94 147.38,223.67 C148.69,220.80 150.30,215.88 150.95,212.73 C151.61,209.58 152.46,207.00 152.84,207.00 C153.79,207.00 160.00,195.60 160.00,193.86 C160.00,193.10 161.53,190.71 163.40,188.55 C165.99,185.55 166.61,184.13 166.01,182.56 C164.97,179.81 162.80,180.35 156.92,184.82 C154.25,186.84 148.67,190.98 144.52,194.00 C131.92,203.17 124.79,208.39 118.50,213.06 C115.21,215.50 112.06,217.83 111.50,218.23 C110.95,218.63 107.73,221.11 104.34,223.73 C100.96,226.35 95.56,230.43 92.34,232.78 C81.16,240.98 79.69,242.54 80.95,244.90 ZM 204.50 147.01 C205.47,148.58 212.76,146.75 214.21,144.58 C214.60,144.00 215.50,143.50 216.21,143.48 C219.18,143.39 224.59,141.63 226.96,139.97 C228.53,138.87 232.29,137.97 236.85,137.58 C240.89,137.25 245.02,136.53 246.03,135.98 C247.04,135.44 249.45,135.00 251.38,135.00 C253.30,135.00 255.12,134.61 255.41,134.14 C256.12,132.99 256.17,85.84 255.47,79.50 C254.73,72.83 254.37,72.00 252.28,72.03 C250.48,72.05 247.98,75.43 239.90,88.75 C237.48,92.74 231.90,101.79 227.50,108.87 C223.10,115.94 217.70,124.73 215.50,128.39 C213.30,132.05 210.17,137.17 208.55,139.77 C206.93,142.37 205.69,144.84 205.80,145.25 C205.91,145.66 205.52,146.00 204.94,146.00 C204.36,146.00 204.16,146.45 204.50,147.01 ZM 371.25 244.36 C373.13,246.70 374.08,247.00 379.53,247.00 C384.66,247.00 386.18,246.58 388.59,244.50 C390.19,243.13 391.86,242.00 392.29,242.00 C393.43,242.00 409.00,226.35 409.00,225.20 C409.00,224.22 399.76,216.83 377.50,200.04 C374.34,197.66 361.23,187.63 355.50,183.21 C348.61,177.90 347.11,177.02 346.53,177.95 C346.17,178.53 346.27,179.00 346.74,179.00 C347.21,179.00 348.17,180.57 348.86,182.50 C349.56,184.43 350.58,186.00 351.12,186.00 C351.67,186.00 351.86,186.41 351.55,186.91 C351.24,187.42 351.38,187.98 351.85,188.16 C353.08,188.64 360.32,204.01 359.64,204.69 C359.02,205.32 361.53,210.68 363.54,213.00 C364.66,214.30 366.07,221.26 368.51,237.61 C368.85,239.88 370.08,242.91 371.25,244.36 ZM 156.34 285.20 C158.39,290.22 158.18,287.20 155.86,278.33 C153.91,270.90 153.54,266.96 153.52,253.50 C153.51,243.22 153.99,235.53 154.87,232.00 C156.30,226.25 163.69,207.32 165.20,205.53 C165.68,204.96 167.99,200.68 170.33,196.00 C174.22,188.22 175.17,187.10 181.54,182.76 L 188.50 178.03 L 188.81 182.01 C189.16,186.53 190.90,187.14 195.96,184.52 C199.40,182.74 208.43,169.55 207.63,167.47 C207.30,166.62 205.78,166.00 204.03,166.00 C200.17,166.00 200.22,165.35 204.40,161.57 C216.39,150.73 235.77,144.05 260.00,142.41 C268.13,141.86 271.16,142.14 281.01,144.36 C287.34,145.78 294.88,148.09 297.76,149.48 C300.64,150.86 303.64,152.00 304.42,152.00 C305.21,152.00 306.45,152.57 307.18,153.27 C307.91,153.97 310.88,156.05 313.78,157.90 C316.69,159.74 319.51,162.09 320.07,163.12 C320.62,164.16 321.58,165.00 322.19,165.00 C323.76,165.00 335.65,177.25 341.34,184.72 C343.94,188.14 347.43,193.67 349.08,197.00 C351.01,200.89 352.50,202.81 353.24,202.35 C354.11,201.81 354.10,201.53 353.19,201.23 C352.53,201.01 352.24,200.42 352.55,199.91 C352.86,199.41 352.61,199.00 352.00,199.00 C351.39,199.00 351.16,198.55 351.50,198.00 C351.84,197.45 351.61,197.00 351.00,197.00 C350.39,197.00 350.16,196.55 350.50,196.00 C350.84,195.45 350.61,195.00 350.00,195.00 C349.39,195.00 349.14,194.59 349.45,194.09 C349.76,193.58 349.64,193.02 349.18,192.84 C348.72,192.65 345.94,188.90 343.00,184.50 C337.06,175.62 326.40,164.47 318.00,158.37 C282.52,132.60 235.90,131.33 201.22,155.19 C198.71,156.92 196.06,158.33 195.33,158.33 C194.60,158.33 194.14,158.47 194.30,158.64 C194.47,158.80 190.48,163.12 185.44,168.23 C170.27,183.59 159.87,201.78 154.30,222.71 C152.01,231.30 151.68,234.53 151.61,249.00 C151.54,265.24 153.11,277.31 156.34,285.20 ZM 249.93 423.58 C250.53,424.31 254.51,422.96 254.84,421.92 C255.09,421.14 255.79,420.17 256.40,419.77 C257.19,419.24 257.18,419.03 256.37,419.02 C255.57,419.00 255.28,412.27 255.37,395.25 C255.44,382.19 255.15,370.26 254.73,368.75 C254.00,366.12 253.68,366.00 247.70,366.00 C243.80,366.00 239.17,365.19 235.47,363.85 C232.08,362.63 226.41,361.57 222.35,361.40 C212.33,360.97 212.25,362.13 221.34,376.00 C232.73,393.41 240.18,405.28 240.44,406.43 C240.57,407.02 240.48,407.16 240.25,406.75 C240.02,406.34 239.35,406.00 238.76,406.00 C238.17,406.00 238.49,406.89 239.48,407.98 C240.46,409.06 241.71,409.68 242.24,409.35 C242.82,408.99 242.95,409.57 242.57,410.79 C242.20,411.96 242.43,413.15 243.11,413.57 C243.87,414.04 244.05,413.88 243.60,413.15 C243.20,412.52 243.25,412.02 243.69,412.06 C245.24,412.16 249.14,417.99 249.50,420.74 C249.70,422.26 249.89,423.54 249.93,423.58 ZM 356.65 306.53 C356.96,307.34 357.43,308.00 357.70,308.00 C358.99,308.00 428.75,256.29 430.69,253.90 C433.17,250.85 430.57,249.62 420.74,249.19 C411.73,248.79 411.23,248.88 408.53,251.39 C406.98,252.82 405.21,254.00 404.60,254.00 C404.00,254.01 400.05,257.16 395.84,261.00 C391.62,264.85 387.55,268.00 386.78,268.00 C386.02,268.00 383.73,269.52 381.69,271.39 C379.66,273.25 376.89,275.50 375.54,276.38 C371.79,278.84 363.09,289.74 362.44,292.79 C361.72,296.18 358.19,303.77 356.98,304.51 C356.49,304.81 356.34,305.72 356.65,306.53 ZM 252.00 266.20 L 256.50 268.55 L 263.00 265.94 C269.90,263.16 272.75,259.85 274.99,252.00 C276.24,247.62 272.95,236.79 269.37,233.47 C266.38,230.69 256.81,227.14 254.93,228.10 C254.15,228.50 252.04,229.38 250.25,230.04 C245.72,231.72 241.43,236.96 239.46,243.21 C237.82,248.44 237.83,248.57 240.31,254.00 C243.20,260.31 245.67,262.88 252.00,266.20 ZM 149.00 303.93 C151.81,306.17 152.86,306.37 154.94,305.06 C156.42,304.12 155.04,299.64 148.44,284.00 C147.16,280.98 146.13,276.70 146.15,274.50 C146.20,269.66 144.58,265.16 142.51,264.36 C139.73,263.30 133.81,265.01 133.28,267.03 C133.01,268.07 130.37,270.75 127.41,272.98 C122.22,276.90 120.04,280.63 121.52,283.03 C121.91,283.66 127.69,288.18 134.36,293.06 C141.04,297.95 147.62,302.84 149.00,303.93 ZM 101.00 268.25 C104.02,270.31 106.87,272.00 107.33,272.00 C107.78,272.00 109.46,270.69 111.07,269.09 C112.67,267.48 115.08,265.80 116.43,265.34 C119.54,264.27 133.00,252.08 133.00,250.32 C133.00,249.26 127.97,249.00 107.61,249.00 C81.30,249.00 81.00,249.04 81.00,252.96 C81.00,253.78 91.23,261.59 101.00,268.25 ZM 86.73 314.08 C85.88,310.83 91.93,302.35 104.43,289.29 C112.34,281.01 114.34,279.89 117.02,282.25 C117.81,282.94 117.66,282.55 116.70,281.39 C115.03,279.39 115.03,279.19 116.72,277.27 C119.01,274.66 142.82,255.66 145.68,254.15 C146.89,253.52 148.28,253.00 148.79,253.00 C149.29,253.00 150.00,256.71 150.36,261.25 C150.71,265.79 151.45,270.85 152.00,272.50 L 152.99 275.50 L 152.51 272.50 C152.24,270.85 151.73,264.97 151.37,259.43 C150.75,249.81 150.60,249.31 148.10,248.20 C146.50,247.49 144.33,247.35 142.53,247.83 C140.20,248.46 139.94,248.76 141.29,249.28 C144.41,250.48 143.16,253.67 138.00,257.60 C135.25,259.70 133.00,261.77 133.00,262.21 C133.00,262.64 132.42,263.00 131.72,263.00 C131.01,263.00 128.08,265.25 125.20,268.00 C122.31,270.75 119.63,273.00 119.24,273.00 C117.08,273.00 94.76,296.20 89.47,303.94 C85.74,309.40 84.88,311.40 85.39,313.43 C85.75,314.84 86.31,316.00 86.64,316.00 C86.96,316.00 87.01,315.14 86.73,314.08 ZM 347.49 188.98 C345.67,185.46 334.49,170.42 333.01,169.51 C328.73,166.86 340.17,162.35 364.00,157.28 C374.72,155.00 379.00,154.61 394.09,154.56 C407.73,154.51 412.07,154.81 413.37,155.89 C415.27,157.47 416.28,157.07 415.13,155.21 C414.71,154.53 410.42,153.47 405.59,152.84 C390.19,150.85 363.05,154.59 338.79,162.05 C333.13,163.79 328.31,165.39 328.09,165.60 C327.86,165.82 330.36,168.81 333.64,172.25 C336.92,175.69 341.59,181.54 344.02,185.25 C348.74,192.49 350.00,193.84 347.49,188.98 ZM 257.98 443.90 C258.00,440.59 258.56,438.80 260.00,437.50 C261.10,436.50 262.00,435.11 262.00,434.40 C262.00,433.61 263.65,432.97 266.25,432.73 L 270.50 432.35 L 266.23 432.17 C262.55,432.02 261.82,432.34 261.03,434.41 C260.55,435.69 259.70,436.62 258.65,437.15 C258.83,437.03 259.01,436.90 259.19,436.75 C260.87,435.42 262.26,430.00 260.93,430.00 C260.50,430.00 259.45,429.31 258.61,428.47 C257.33,427.19 256.73,427.15 255.00,428.22 C252.06,430.04 251.38,433.65 253.54,436.04 C254.14,436.71 254.69,437.20 255.22,437.51 C254.75,437.40 254.27,437.23 253.79,437.00 L 251.50 435.89 L 253.75 437.85 C255.60,439.47 256.00,440.87 256.02,445.66 C256.03,449.80 256.31,451.06 257.00,450.00 C257.53,449.17 257.98,446.43 257.98,443.90 ZM 417.00 245.54 C417.00,246.67 418.45,247.00 423.38,247.00 C429.16,247.00 429.82,246.79 430.36,244.75 C431.25,241.34 427.17,237.60 423.93,238.86 C420.73,240.11 417.00,243.70 417.00,245.54 ZM 252.53 63.22 C252.88,64.12 254.60,64.60 257.46,64.57 C259.88,64.55 261.33,64.19 260.68,63.78 C259.84,63.25 259.83,63.03 260.63,63.02 C261.26,63.01 262.00,62.10 262.29,61.00 C262.58,59.90 262.38,59.00 261.85,59.00 C261.32,59.00 261.12,58.62 261.41,58.15 C261.70,57.68 260.83,56.71 259.47,55.99 C254.57,53.36 250.41,57.69 252.53,63.22 ZM 68.61 251.70 C70.98,253.44 73.52,253.34 75.43,251.43 C77.27,249.59 77.51,247.00 75.83,247.00 C75.19,247.00 74.95,246.72 75.29,246.38 C75.63,246.04 75.21,245.07 74.36,244.22 C73.20,243.06 72.16,242.91 70.16,243.61 C66.82,244.78 65.87,249.70 68.61,251.70 ZM 182.32 327.75 C174.03,319.34 165.67,308.35 166.52,306.97 C166.78,306.55 166.29,305.94 165.43,305.61 C164.57,305.28 164.15,304.56 164.50,304.01 C164.84,303.45 164.64,303.00 164.06,303.00 C162.42,303.00 162.64,303.48 168.50,312.72 C174.22,321.74 175.22,324.18 172.25,321.90 C171.29,321.16 171.59,321.78 172.92,323.28 C174.26,324.78 175.69,326.00 176.11,326.00 C176.53,326.00 178.35,327.35 180.16,329.00 C181.97,330.65 183.95,332.00 184.57,332.00 C185.19,332.00 186.50,332.90 187.50,334.00 C188.50,335.10 189.57,336.00 189.88,336.00 C190.20,336.00 186.79,332.29 182.32,327.75 ZM 430.74 237.04 C433.12,240.44 435.33,239.05 436.59,233.36 C437.22,230.55 438.08,227.67 438.51,226.98 C439.11,226.01 438.61,225.88 436.40,226.43 C430.65,227.87 427.91,233.00 430.74,237.04 ZM 360.62 233.95 C361.03,235.88 361.33,236.09 362.05,234.95 C363.24,233.07 363.27,229.00 362.09,229.00 C361.60,229.00 361.42,228.10 361.71,227.00 C362.01,225.87 361.74,225.00 361.10,225.00 C360.40,225.00 360.19,224.08 360.55,222.64 C360.92,221.19 360.57,219.71 359.63,218.77 C358.80,217.94 358.35,216.37 358.64,215.28 C358.92,214.19 358.52,212.66 357.75,211.89 C356.97,211.12 356.51,209.98 356.71,209.36 C356.92,208.75 356.41,207.99 355.59,207.67 C354.70,207.33 354.26,207.58 354.50,208.30 C354.90,209.53 359.68,229.55 360.62,233.95 ZM 80.14 339.43 C78.84,334.82 79.87,326.96 82.49,321.56 C83.99,318.47 84.58,316.07 84.07,315.16 C83.03,313.31 79.08,323.49 78.32,329.99 C77.84,334.07 79.53,343.80 80.55,342.78 C80.78,342.56 80.59,341.05 80.14,339.43 ZM 244.00 359.06 C244.00,360.24 251.69,360.31 252.42,359.14 C252.71,358.66 250.60,357.98 247.72,357.63 C244.85,357.27 240.41,356.61 237.85,356.16 C234.07,355.50 233.30,355.61 233.73,356.73 C234.02,357.49 234.88,357.88 235.63,357.59 C236.38,357.30 237.00,357.56 237.00,358.16 C237.00,358.86 238.28,359.05 240.50,358.69 C242.43,358.38 244.00,358.55 244.00,359.06 ZM 371.17 251.82 C370.88,253.90 371.19,254.11 374.17,253.82 C376.77,253.57 377.57,252.99 377.83,251.18 C378.12,249.10 377.81,248.89 374.83,249.18 C372.23,249.43 371.43,250.01 371.17,251.82 ZM 316.00 155.00 C315.41,153.90 314.47,153.00 313.91,153.00 C313.34,153.00 313.16,152.56 313.49,152.01 C313.83,151.46 313.46,151.27 312.65,151.58 C311.85,151.89 309.24,151.15 306.85,149.95 C301.06,147.03 302.29,148.17 310.11,152.98 C310.48,153.21 310.84,153.43 311.18,153.64 C315.11,156.05 316.51,156.92 316.72,156.69 C316.84,156.56 316.59,156.09 316.19,155.36 C316.13,155.25 316.07,155.13 316.00,155.00 ZM 230.00 101.69 C230.00,102.70 230.36,102.17 237.45,90.65 C241.13,84.68 243.97,79.63 243.76,79.43 C243.36,79.02 230.00,100.63 230.00,101.69 ZM 314.55 344.52 C314.59,341.97 313.54,342.18 309.50,345.50 C307.52,347.13 307.52,347.14 309.75,346.67 C312.03,346.18 312.84,347.37 311.00,348.50 C310.45,348.84 310.00,349.56 310.00,350.10 C310.00,352.25 314.50,346.72 314.55,344.52 ZM 388.65 247.85 C385.66,247.28 382.21,247.28 379.65,247.85 C376.03,248.67 376.64,248.79 384.50,248.78 C392.86,248.78 393.15,248.71 388.65,247.85 ZM 47.66 249.66 C47.49,249.64 47.32,249.61 47.14,249.57 C44.83,249.05 44.72,249.11 46.36,250.10 C44.19,249.56 43.14,248.54 44.13,247.34 C45.63,245.54 47.08,245.63 46.36,247.49 C45.97,248.52 46.67,249.35 47.66,249.66 ZM 283.86 428.12 C292.07,427.05 301.72,424.85 311.23,421.90 C304.60,424.06 298.27,425.86 294.49,426.54 C292.30,426.94 290.05,427.53 289.50,427.85 C288.95,428.17 287.38,428.36 286.00,428.27 ZM 142.00 250.31 C142.00,249.62 136.15,253.95 135.36,255.23 C134.97,255.85 136.31,255.10 138.33,253.56 C140.35,252.02 142.00,250.56 142.00,250.31 ZM 149.04 394.33 C161.31,403.36 174.77,411.01 188.48,416.83 C186.35,415.97 184.34,415.10 182.50,414.26 C170.08,408.53 159.64,402.37 149.04,394.33 ZM 265.51 419.62 C264.57,421.07 264.29,421.94 264.89,421.57 C266.05,420.85 268.37,417.00 267.65,417.00 C267.42,417.00 266.46,418.18 265.51,419.62 ZM 427.00 174.06 C427.00,174.58 427.45,175.00 428.00,175.00 C428.55,175.00 429.00,174.30 429.00,173.44 C429.00,172.58 428.55,172.16 428.00,172.50 C427.45,172.84 427.00,173.54 427.00,174.06 ZM 356.56 88.83 C349.55,84.19 342.26,80.10 334.63,76.50 C331.88,75.20 329.49,74.10 327.41,73.18 C331.41,74.88 335.66,76.81 339.15,78.56 C344.91,81.45 350.76,84.92 356.56,88.83 ZM 370.48 393.28 C380.25,385.44 389.33,376.49 397.71,366.44 C389.61,376.36 380.54,385.30 370.48,393.28 ZM 401.48 361.66 C406.18,355.41 411.28,347.61 415.33,340.70 C411.11,348.10 406.50,355.08 401.48,361.66 ZM 226.81 427.92 C227.31,427.99 227.88,428.07 228.49,428.14 C228.34,428.13 228.18,428.12 228.00,428.11 C225.37,427.98 221.28,427.19 216.48,425.98 C219.95,426.77 223.41,427.42 226.81,427.92 ZM 365.35 98.39 C360.19,94.42 354.84,90.73 349.40,87.37 C351.17,88.41 352.78,89.40 354.13,90.29 C357.80,92.70 361.58,95.44 365.35,98.39 ZM 442.74 252.35 C444.09,251.32 445.42,249.71 445.85,248.48 C445.93,249.20 445.64,249.73 445.00,250.50 C444.50,251.10 443.63,251.80 442.74,252.35 ZM 463.75 250.58 C463.57,250.40 463.24,250.13 462.78,249.75 C462.57,249.57 462.38,249.40 462.22,249.24 C462.34,249.30 462.47,249.35 462.62,249.41 C463.51,249.75 464.01,250.27 463.75,250.58 ZM 327.54 299.78 C326.01,300.66 324.61,301.45 323.50,302.05 C320.20,303.86 315.48,306.45 313.00,307.81 C310.67,309.09 308.49,310.28 306.45,311.39 C308.56,310.20 311.16,308.77 313.00,307.77 C318.72,304.67 323.53,302.03 327.54,299.78 ZM 461.68 247.95 C461.76,247.67 461.96,247.37 462.28,247.02 C463.27,245.95 463.12,245.86 461.50,246.52 C461.23,246.63 460.81,246.74 460.29,246.84 C460.62,246.72 461.01,246.57 461.50,246.39 C463.22,245.73 463.32,245.84 462.22,247.20 C461.99,247.49 461.80,247.74 461.68,247.95 ZM 397.89 126.16 C394.08,121.67 390.21,117.44 386.28,113.45 C390.38,117.56 394.27,121.81 397.89,126.16 ZM 461.04 250.02 C461.69,250.14 462.20,250.26 462.50,250.38 C462.88,250.53 463.18,250.65 463.41,250.72 C462.90,250.77 461.96,250.51 461.04,250.02 ZM 297.59 309.06 C286.89,314.29 275.84,319.31 264.74,323.99 C275.97,319.23 287.14,314.16 297.59,309.06 ZM 258.82 40.39 C258.86,40.28 258.91,40.17 258.95,40.09 C259.39,39.28 259.46,38.64 259.31,38.27 C259.80,38.33 259.64,38.80 259.05,39.90 C258.97,40.06 258.89,40.22 258.82,40.39 ZM 422.95 324.69 C422.96,324.54 422.97,324.40 422.97,324.28 C422.96,323.84 422.94,323.52 422.90,323.33 C423.08,323.47 423.09,323.95 422.95,324.69 ZM 50.68 248.63 C50.54,249.03 50.18,249.35 49.65,249.54 C49.89,249.43 50.12,249.27 50.32,249.07 C50.47,248.91 50.59,248.77 50.68,248.63 ZM 317.21 299.03 C315.29,300.06 313.35,301.08 311.39,302.10 C311.49,302.04 311.59,301.99 311.70,301.94 C313.60,300.94 315.44,299.97 317.21,299.03 ZM 49.08 246.05 C49.19,246.14 49.32,246.24 49.46,246.35 C49.57,246.43 49.68,246.51 49.78,246.60 C49.71,246.54 49.64,246.49 49.56,246.43 C49.38,246.30 49.22,246.17 49.08,246.05 Z" fill="rgb(175,200,245)"/>
<path d="M 0.00 256.00 L 0.00 0.00 L 256.00 0.00 L 512.00 0.00 L 512.00 256.00 L 512.00 512.00 L 256.00 512.00 L 0.00 512.00 L 0.00 256.00 ZM 255.00 456.47 C255.00,455.63 255.68,454.68 256.50,454.36 C257.47,453.99 258.00,452.45 258.00,450.03 C258.00,447.27 258.80,445.37 261.00,442.89 C262.65,441.02 264.56,438.24 265.25,436.71 C266.57,433.76 267.31,433.47 276.00,432.52 C295.52,430.39 319.39,423.33 337.07,414.46 C374.15,395.87 401.75,368.31 420.38,331.28 C423.40,325.27 424.02,321.10 421.39,324.50 C420.53,325.60 418.34,329.42 416.51,333.00 C398.38,368.49 367.08,398.28 330.85,414.57 C311.59,423.22 285.76,429.46 271.87,428.80 C266.12,428.53 265.47,428.28 265.18,426.23 C264.98,424.83 266.22,422.10 268.43,419.09 C271.42,415.03 271.75,414.12 270.41,413.61 C268.50,412.87 266.74,413.77 267.54,415.07 C267.86,415.58 267.70,416.00 267.19,416.00 C266.68,416.00 265.20,417.54 263.91,419.42 C262.59,421.35 260.79,422.78 259.78,422.71 C258.12,422.58 258.00,420.74 258.00,394.82 C258.00,363.17 257.45,365.00 266.99,365.00 C270.00,365.00 273.94,364.17 276.55,362.98 C279.00,361.86 282.46,360.71 284.25,360.42 C286.04,360.12 291.21,358.71 295.74,357.27 C300.28,355.83 304.27,354.93 304.61,355.28 C304.95,355.62 303.86,358.13 302.19,360.85 C300.51,363.58 299.41,366.07 299.74,366.40 C300.06,366.73 299.78,367.00 299.11,367.00 C298.43,367.00 298.16,367.45 298.50,368.01 C298.85,368.56 298.46,369.27 297.65,369.58 C295.92,370.25 290.67,377.88 290.67,379.73 C290.67,380.43 290.29,381.00 289.83,381.00 C289.38,381.00 289.00,381.64 289.00,382.42 C289.00,383.20 288.63,383.98 288.18,384.17 C287.16,384.58 279.28,395.89 276.27,401.27 C274.82,403.86 274.33,405.77 274.88,406.75 C275.53,407.90 275.90,407.97 276.49,407.02 C276.92,406.31 276.66,405.35 275.88,404.79 C274.80,404.02 274.87,403.93 276.20,404.36 C278.21,405.00 282.57,398.73 281.42,396.86 C280.99,396.18 281.12,395.96 281.72,396.33 C282.30,396.69 288.76,387.70 296.53,375.73 C311.15,353.19 315.79,347.20 320.07,345.35 C323.42,343.91 327.00,340.89 327.00,339.49 C327.00,338.37 332.56,334.71 333.52,335.21 C333.83,335.37 335.06,333.92 336.26,332.00 C338.94,327.70 340.60,325.93 341.28,326.61 C341.57,326.90 343.28,325.29 345.10,323.03 C348.91,318.29 358.30,310.69 383.50,291.99 C393.40,284.64 408.63,273.32 417.35,266.83 C435.52,253.30 436.27,253.14 437.39,262.63 C437.84,266.49 437.69,268.57 436.92,269.05 C436.22,269.48 436.04,270.91 436.45,272.78 C436.86,274.63 436.68,276.08 436.00,276.50 C435.33,276.91 435.14,278.36 435.52,280.10 C435.94,281.98 435.76,283.00 435.01,283.00 C434.32,283.00 434.12,283.79 434.50,285.00 C434.87,286.16 434.68,287.00 434.05,287.00 C433.39,287.00 433.21,287.98 433.59,289.50 C433.99,291.10 433.80,292.00 433.05,292.00 C432.41,292.00 432.17,292.47 432.53,293.04 C432.88,293.62 432.75,294.63 432.23,295.29 C430.73,297.21 428.11,305.78 428.81,306.48 C429.16,306.82 428.94,307.42 428.32,307.80 C427.70,308.19 427.04,309.40 426.85,310.50 C426.66,311.60 426.11,312.78 425.63,313.13 C425.16,313.48 425.23,314.59 425.80,315.60 C426.69,317.20 427.16,316.70 429.27,311.92 C432.52,304.57 437.61,284.15 439.59,270.50 C440.69,262.96 441.67,259.23 442.72,258.63 C443.56,258.15 446.10,256.01 448.37,253.88 C452.89,249.62 457.59,248.17 460.98,249.99 C462.19,250.63 463.42,250.91 463.73,250.60 C464.04,250.30 463.54,249.76 462.62,249.41 C461.24,248.88 461.17,248.50 462.22,247.20 C463.32,245.84 463.22,245.73 461.50,246.39 C459.11,247.30 459.27,247.28 455.50,247.08 C453.36,246.97 450.84,245.37 446.75,241.50 L 440.99 236.08 L 441.92 225.35 C442.73,216.06 443.33,213.67 446.43,207.56 C448.40,203.68 450.01,199.97 450.00,199.33 C450.00,198.68 451.07,196.88 452.37,195.33 C457.07,189.72 458.92,176.51 456.51,165.69 C455.08,159.25 454.21,157.54 450.37,153.52 C446.07,149.04 439.30,145.07 435.87,145.02 C434.98,145.01 433.68,144.32 433.00,143.50 C432.30,142.65 430.12,142.00 427.99,142.00 C425.92,142.00 422.04,141.33 419.36,140.52 C416.69,139.70 412.70,138.56 410.50,137.98 C407.25,137.13 405.40,135.54 400.60,129.49 C384.13,108.71 360.98,89.52 339.15,78.56 C329.77,73.85 314.84,67.82 314.19,68.48 C313.91,68.76 313.08,68.48 312.34,67.87 C311.60,67.26 311.00,67.09 311.00,67.50 C311.00,67.91 310.43,67.77 309.73,67.19 C309.02,66.60 307.34,65.98 305.98,65.79 C304.61,65.60 302.94,65.10 302.25,64.67 C301.56,64.23 300.55,64.16 300.00,64.50 C299.45,64.84 298.45,64.78 297.77,64.36 C297.09,63.94 295.63,63.45 294.52,63.28 C293.41,63.11 291.15,62.73 289.50,62.43 C287.85,62.13 285.26,61.90 283.75,61.90 C282.24,61.91 281.00,61.45 281.00,60.87 C281.00,60.25 279.27,59.96 276.75,60.16 C272.54,60.49 266.00,58.53 266.00,56.92 C266.00,56.15 263.26,53.30 259.55,50.21 C257.77,48.73 257.49,42.82 259.05,39.90 C259.99,38.15 259.84,38.00 257.69,38.54 C256.11,38.94 255.09,38.67 254.75,37.78 C254.03,35.92 256.58,32.62 258.03,33.52 C258.91,34.06 258.90,33.68 258.01,32.02 L 256.83 29.80 L 255.20 32.12 C253.42,34.66 252.67,40.00 254.10,40.00 C254.59,40.00 255.00,41.97 255.00,44.37 C255.00,48.35 254.65,48.97 251.02,51.37 C248.83,52.82 246.76,55.12 246.42,56.48 C245.75,59.15 246.46,58.94 230.50,61.05 C225.55,61.71 221.10,62.48 220.60,62.77 C220.11,63.06 218.31,63.43 216.60,63.60 C213.36,63.90 197.49,68.26 192.75,70.15 C191.24,70.75 190.00,71.64 190.00,72.12 C190.00,72.60 189.01,73.00 187.80,73.00 C183.72,73.00 156.19,87.45 155.17,90.13 C154.98,90.61 154.41,91.00 153.89,91.00 C152.57,91.00 143.00,98.25 143.00,99.25 C143.00,99.70 142.14,100.39 141.09,100.78 C138.86,101.62 119.71,119.04 120.33,119.67 C120.71,120.05 119.25,121.79 112.91,128.54 C111.86,129.65 111.00,130.84 111.00,131.18 C111.00,131.51 109.65,133.23 108.00,135.00 C106.36,136.76 105.26,138.61 105.56,139.10 C105.87,139.60 105.63,140.00 105.03,140.00 C103.99,140.00 100.32,145.36 99.90,147.50 C99.79,148.05 99.11,148.95 98.39,149.50 C96.42,151.00 88.94,165.10 89.57,166.12 C89.87,166.60 89.57,167.00 88.89,167.00 C88.22,167.00 87.96,167.29 88.32,167.65 C88.68,168.01 88.37,168.80 87.65,169.40 C86.59,170.29 84.79,174.93 83.44,180.25 C83.34,180.66 83.14,181.23 83.00,181.50 C82.86,181.77 82.64,182.45 82.50,183.00 C82.36,183.55 82.19,184.23 82.12,184.50 C82.06,184.77 82.04,185.29 82.09,185.64 C82.13,185.99 81.73,186.55 81.19,186.89 C80.65,187.22 80.05,188.62 79.85,190.00 C79.66,191.38 79.10,192.79 78.61,193.14 C78.12,193.50 77.67,195.19 77.61,196.89 C77.55,198.60 77.11,200.00 76.64,200.00 C76.17,200.00 76.06,201.09 76.39,202.42 C76.72,203.75 76.53,204.99 75.95,205.18 C75.38,205.37 74.86,207.55 74.79,210.01 C74.71,212.48 74.28,215.00 73.81,215.62 C72.78,216.99 72.31,225.65 73.22,226.55 C74.69,228.02 75.74,225.71 76.30,219.78 C77.53,206.89 83.77,185.99 91.30,169.50 C104.09,141.54 128.46,112.29 153.63,94.71 C165.09,86.71 184.75,76.74 198.00,72.22 C205.50,69.66 210.45,68.36 229.00,64.12 C233.36,63.12 233.38,63.10 229.50,63.58 C226.58,63.94 225.90,63.80 227.00,63.05 C228.87,61.78 234.00,61.68 234.00,62.92 C234.00,63.42 236.57,63.81 239.71,63.78 C243.59,63.75 245.55,64.16 245.85,65.06 C246.10,65.79 247.37,67.46 248.68,68.77 C250.85,70.94 250.88,71.10 249.03,70.51 C247.81,70.12 247.00,70.31 247.00,70.99 C247.00,71.61 247.51,71.80 248.13,71.42 C248.82,70.99 249.07,71.26 248.78,72.11 C248.51,72.87 247.44,73.40 246.40,73.28 C245.35,73.16 245.06,73.31 245.75,73.61 C247.67,74.46 247.23,76.01 245.25,75.37 C243.90,74.94 243.81,75.03 244.88,75.79 C245.64,76.34 245.92,77.32 245.50,77.99 C244.98,78.84 244.54,78.88 244.09,78.14 C243.42,77.06 227.00,102.74 227.00,104.86 C227.00,105.49 226.52,106.00 225.94,106.00 C225.36,106.00 225.16,106.45 225.50,107.01 C225.85,107.56 225.41,108.29 224.53,108.63 C222.67,109.34 219.78,114.45 220.71,115.37 C221.05,115.72 220.78,116.00 220.11,116.00 C219.43,116.00 219.14,116.42 219.46,116.94 C219.78,117.45 219.42,118.24 218.67,118.69 C216.77,119.81 211.97,127.64 212.72,128.39 C213.06,128.73 212.86,129.00 212.28,129.00 C211.71,129.00 209.31,132.04 206.97,135.75 C200.86,145.42 196.74,151.41 195.72,152.11 C195.23,152.45 194.97,152.90 195.15,153.11 C195.32,153.33 194.80,154.41 193.98,155.52 C192.67,157.30 190.77,158.76 184.91,162.49 C184.03,163.04 181.44,164.85 179.14,166.50 C176.84,168.15 170.80,172.40 165.73,175.94 C160.65,179.48 156.27,182.66 156.00,183.00 C155.73,183.34 151.23,186.63 146.00,190.30 C140.77,193.98 129.98,201.78 122.00,207.65 C114.03,213.51 105.56,219.71 103.19,221.41 C100.82,223.11 96.55,226.34 93.69,228.58 C82.34,237.50 77.95,240.04 75.86,238.92 C74.20,238.04 74.00,237.21 74.54,233.56 C74.92,231.06 74.78,228.98 74.21,228.63 C72.69,227.69 70.76,230.67 71.46,232.89 C72.14,235.01 68.31,239.60 62.39,243.75 C58.73,246.32 51.58,247.75 50.57,246.11 C50.19,245.50 49.37,245.00 48.75,245.00 C48.13,245.00 48.49,245.64 49.56,246.43 C51.06,247.54 51.23,248.14 50.32,249.07 C48.75,250.66 45.63,249.42 46.36,247.49 C47.08,245.63 45.63,245.54 44.13,247.34 C42.38,249.45 46.99,251.03 52.85,250.33 C58.35,249.68 59.28,250.12 66.47,256.86 C68.90,259.14 71.25,260.99 71.69,260.98 C72.14,260.97 73.56,259.85 74.85,258.48 C78.46,254.68 77.16,254.08 96.75,268.46 C100.19,270.98 103.00,273.46 103.00,273.96 C103.00,274.46 102.03,275.17 100.85,275.55 C99.67,275.92 96.86,277.93 94.60,280.00 C92.35,282.08 88.81,284.48 86.74,285.34 C84.67,286.20 82.71,287.61 82.38,288.45 C81.10,291.80 79.12,289.90 78.01,284.25 C77.39,281.09 76.61,277.83 76.28,277.00 C75.95,276.17 75.78,275.08 75.90,274.56 C76.29,272.94 75.00,269.00 74.09,269.00 C72.70,269.00 71.81,274.06 72.95,275.44 C73.52,276.12 73.71,276.96 73.37,277.30 C73.03,277.64 73.09,278.72 73.51,279.71 C74.16,281.24 75.15,291.82 75.14,297.15 C75.14,298.58 71.25,306.95 65.63,317.62 C63.33,321.98 60.00,335.50 60.00,340.48 C60.00,347.39 62.59,353.03 68.78,359.61 C71.94,362.97 75.65,366.06 77.01,366.47 C78.38,366.89 80.90,368.08 82.62,369.11 C84.56,370.29 87.60,371.00 90.69,371.00 C93.41,371.00 98.08,371.73 101.07,372.61 C104.72,373.70 108.32,374.04 112.06,373.65 C119.18,372.91 120.63,373.70 135.87,386.71 C150.77,399.44 163.04,407.56 178.50,414.96 C198.93,424.73 219.17,430.69 238.28,432.57 C243.55,433.09 245.29,433.67 246.10,435.19 C246.67,436.26 248.91,438.73 251.07,440.68 C254.49,443.77 255.00,444.79 255.00,448.56 C255.00,450.94 254.55,453.16 254.00,453.50 C253.45,453.84 253.00,454.99 253.00,456.06 C253.00,457.13 253.45,458.00 254.00,458.00 C254.55,458.00 255.00,457.31 255.00,456.47 ZM 253.54 436.04 C251.38,433.65 252.06,430.04 255.00,428.22 C256.73,427.15 257.33,427.19 258.61,428.47 C259.45,429.31 260.50,430.00 260.93,430.00 C262.26,430.00 260.87,435.42 259.19,436.75 C257.00,438.49 255.60,438.32 253.54,436.04 ZM 226.81 427.92 C195.30,423.30 160.20,405.93 134.00,382.01 L 128.50 376.99 L 131.40 374.59 C134.74,371.83 139.04,370.73 143.43,371.54 C145.26,371.88 149.08,371.27 152.88,370.05 C156.39,368.92 161.47,368.00 164.16,368.00 C166.86,368.00 170.74,367.28 172.78,366.41 C174.83,365.53 179.54,364.42 183.25,363.94 C186.96,363.45 191.41,362.32 193.14,361.43 C197.16,359.35 209.76,358.96 208.53,360.95 C208.21,361.47 208.87,362.39 210.00,363.00 C211.13,363.61 211.79,364.53 211.47,365.05 C211.15,365.57 211.39,366.00 212.00,366.00 C212.61,366.00 212.84,366.45 212.51,366.99 C212.17,367.54 212.99,369.08 214.34,370.43 C215.69,371.78 216.54,373.13 216.23,373.44 C215.92,373.75 216.19,374.00 216.83,374.00 C217.48,374.00 218.00,374.67 218.00,375.50 C218.00,376.33 218.48,377.00 219.06,377.00 C219.64,377.00 219.84,377.45 219.50,378.01 C219.15,378.56 219.57,379.28 220.43,379.61 C221.29,379.94 221.77,380.56 221.51,380.99 C221.24,381.41 221.92,382.90 223.01,384.29 C224.11,385.68 225.00,387.24 225.00,387.76 C225.00,388.28 226.08,389.87 227.40,391.29 C228.71,392.71 229.54,394.13 229.23,394.44 C228.92,394.75 229.19,395.00 229.83,395.00 C230.48,395.00 231.00,395.63 231.00,396.39 C231.00,397.16 231.70,398.06 232.56,398.39 C233.42,398.72 233.84,399.45 233.49,400.01 C233.14,400.58 234.04,402.44 235.48,404.15 C236.92,405.87 238.98,409.01 240.07,411.13 C241.15,413.26 242.73,415.00 243.58,415.00 C244.43,415.00 244.85,415.43 244.52,415.97 C244.19,416.50 244.75,418.63 245.76,420.72 C246.77,422.80 247.43,425.51 247.23,426.75 C246.88,428.85 246.39,428.99 239.68,428.88 C235.73,428.81 229.94,428.38 226.81,427.92 ZM 249.93 423.58 C249.89,423.54 249.70,422.26 249.50,420.74 C249.14,417.99 245.24,412.16 243.69,412.06 C243.25,412.02 243.20,412.52 243.60,413.15 C244.05,413.88 243.87,414.04 243.11,413.57 C242.43,413.15 242.20,411.96 242.57,410.79 C242.95,409.57 242.82,408.99 242.24,409.35 C241.71,409.68 240.46,409.06 239.48,407.98 C238.49,406.89 238.17,406.00 238.76,406.00 C239.35,406.00 240.02,406.34 240.25,406.75 C240.48,407.16 240.57,407.02 240.44,406.43 C240.18,405.28 232.73,393.41 221.34,376.00 C212.25,362.13 212.33,360.97 222.35,361.40 C226.41,361.57 232.08,362.63 235.47,363.85 C239.17,365.19 243.80,366.00 247.70,366.00 C253.68,366.00 254.00,366.12 254.73,368.75 C255.15,370.26 255.44,382.19 255.37,395.25 C255.28,412.27 255.57,419.00 256.37,419.02 C257.18,419.03 257.19,419.24 256.40,419.77 C255.79,420.17 255.09,421.14 254.84,421.92 C254.51,422.96 250.53,424.31 249.93,423.58 ZM 265.51 419.62 C266.46,418.18 267.42,417.00 267.65,417.00 C268.37,417.00 266.05,420.85 264.89,421.57 C264.29,421.94 264.57,421.07 265.51,419.62 ZM 111.99 367.65 C111.71,367.38 107.89,367.04 103.49,366.91 C99.10,366.77 94.95,366.24 94.28,365.73 C93.61,365.22 91.47,364.76 89.53,364.70 C87.59,364.65 86.00,364.17 86.00,363.64 C86.00,363.10 85.72,362.95 85.38,363.29 C84.58,364.09 74.05,357.45 71.68,354.65 C68.17,350.49 66.04,344.59 66.04,339.00 C66.03,332.54 66.82,329.00 68.28,329.00 C68.86,329.00 69.07,329.26 68.75,329.58 C67.99,330.35 71.12,334.00 72.53,334.00 C73.13,334.00 74.61,333.08 75.81,331.96 L 78.00 329.92 L 78.00 333.90 C78.00,338.70 79.48,342.88 81.79,344.64 C82.73,345.35 83.15,345.95 82.72,345.97 C80.77,346.05 88.84,352.48 93.42,354.51 C102.42,358.49 109.40,359.49 127.50,359.43 C140.60,359.38 147.49,358.83 157.50,357.06 C170.99,354.67 194.66,349.11 201.34,346.76 L 205.18 345.41 L 198.26 340.81 C186.80,333.19 173.67,319.87 169.12,311.25 C167.20,307.62 168.76,308.67 171.36,312.75 C178.09,323.35 199.75,342.25 206.70,343.59 C209.10,344.05 214.03,342.81 226.20,338.68 C269.24,324.10 317.36,301.15 350.71,279.30 C359.41,273.61 360.98,271.16 360.99,263.31 C361.00,260.19 362.48,258.15 363.79,259.45 C364.15,259.81 363.86,260.47 363.15,260.91 C362.24,261.47 362.07,262.83 362.56,265.46 C363.06,268.16 362.88,269.46 361.91,270.06 C361.17,270.51 360.87,271.21 361.26,271.59 C363.19,273.52 392.00,251.03 408.10,235.02 C422.41,220.79 429.63,211.19 435.80,198.22 C438.88,191.72 439.46,189.35 439.82,181.85 L 440.24 173.07 L 444.37 173.64 C447.75,174.10 448.85,173.82 450.41,172.10 C453.32,168.88 454.00,169.52 454.00,175.50 C454.00,178.57 453.55,181.00 452.98,181.00 C452.39,181.00 452.23,182.06 452.59,183.50 C452.99,185.10 452.80,186.00 452.05,186.00 C451.41,186.00 451.16,186.45 451.50,187.00 C451.84,187.55 451.59,188.00 450.95,188.00 C450.31,188.00 450.05,188.68 450.36,189.50 C450.68,190.32 450.52,191.00 450.00,191.00 C449.48,191.00 449.32,191.68 449.64,192.50 C449.95,193.32 449.69,194.00 449.05,194.00 C448.41,194.00 448.16,194.45 448.50,195.00 C448.84,195.55 448.61,196.00 448.00,196.00 C447.39,196.00 447.16,196.45 447.50,197.00 C447.84,197.55 447.61,198.00 447.00,198.00 C446.39,198.00 446.16,198.45 446.50,199.00 C446.84,199.55 446.61,200.00 446.00,200.00 C445.39,200.00 445.16,200.45 445.50,201.01 C445.85,201.56 445.43,202.28 444.57,202.61 C443.71,202.94 443.26,203.61 443.56,204.10 C443.87,204.60 443.69,205.00 443.17,205.00 C442.00,205.00 438.67,209.98 438.67,211.72 C438.67,212.42 438.29,213.00 437.83,213.00 C437.38,213.00 437.00,213.68 437.00,214.50 C437.00,215.32 436.42,216.00 435.72,216.00 C435.01,216.00 431.75,219.19 428.47,223.08 C416.63,237.12 395.72,254.96 372.22,271.06 C363.63,276.95 359.60,280.30 359.79,281.39 C359.96,282.27 359.63,283.00 359.08,283.00 C358.52,283.00 358.32,283.67 358.64,284.50 C358.95,285.33 358.73,286.00 358.14,286.00 C357.55,286.00 357.32,286.67 357.64,287.50 C357.95,288.33 357.73,289.00 357.14,289.00 C356.55,289.00 356.30,289.62 356.59,290.37 C356.88,291.13 356.44,292.42 355.61,293.25 C354.77,294.08 354.37,295.04 354.71,295.38 C355.05,295.72 354.78,296.00 354.11,296.00 C353.43,296.00 353.16,296.45 353.50,297.00 C353.84,297.55 353.61,298.00 353.00,298.00 C352.39,298.00 352.16,298.45 352.50,299.00 C352.84,299.55 352.61,300.00 352.00,300.00 C351.39,300.00 351.16,300.45 351.50,301.00 C351.84,301.55 351.61,302.00 351.00,302.00 C350.39,302.00 350.16,302.45 350.50,303.00 C350.84,303.55 350.61,304.00 350.00,304.00 C349.39,304.00 349.16,304.45 349.50,305.00 C349.84,305.55 349.61,306.00 349.00,306.00 C348.39,306.00 348.16,306.45 348.50,307.01 C348.85,307.56 348.43,308.28 347.57,308.61 C346.71,308.94 346.23,309.56 346.49,309.98 C346.75,310.40 345.74,312.04 344.25,313.62 C342.76,315.21 341.54,316.87 341.52,317.33 C341.51,317.79 340.72,318.73 339.77,319.43 C338.81,320.13 338.26,320.93 338.54,321.21 C339.19,321.86 333.52,328.00 332.29,328.00 C331.79,328.00 330.38,329.35 329.16,331.00 C327.94,332.65 326.33,334.00 325.59,334.00 C324.84,334.00 323.49,335.12 322.59,336.50 C321.69,337.88 320.53,339.00 320.01,339.00 C319.49,339.00 316.45,340.69 313.26,342.75 C310.07,344.81 305.55,347.36 303.23,348.40 C300.90,349.45 299.00,350.67 299.00,351.12 C299.00,351.57 298.38,351.70 297.63,351.41 C296.87,351.12 295.63,351.51 294.87,352.27 C294.11,353.04 292.92,353.47 292.24,353.25 C291.56,353.02 291.00,353.31 291.00,353.89 C291.00,354.46 290.33,354.68 289.50,354.36 C288.67,354.05 288.00,354.24 288.00,354.80 C288.00,355.36 287.10,355.58 286.00,355.29 C284.90,355.00 284.00,355.23 284.00,355.79 C284.00,356.35 283.10,356.58 282.00,356.29 C280.90,356.00 280.00,356.23 280.00,356.79 C280.00,357.35 279.10,357.58 278.00,357.29 C276.87,356.99 276.00,357.26 276.00,357.90 C276.00,358.63 275.06,358.80 273.39,358.38 C271.79,357.98 270.50,358.19 270.04,358.93 C269.51,359.79 267.51,359.93 263.12,359.43 C259.72,359.05 257.09,358.58 257.28,358.38 C257.48,358.19 262.33,357.54 268.07,356.94 C278.99,355.80 286.15,353.77 297.00,348.72 C300.58,347.05 303.83,345.76 304.24,345.84 C304.65,345.93 305.77,345.35 306.74,344.57 C307.71,343.79 311.65,340.78 315.50,337.89 C319.35,335.00 322.83,332.16 323.23,331.57 C323.64,330.98 323.98,330.90 323.98,331.39 C323.99,331.88 325.36,330.56 327.03,328.46 C328.70,326.36 330.87,324.08 331.84,323.40 C332.82,322.71 334.89,320.32 336.44,318.09 C337.98,315.86 339.71,314.32 340.28,314.67 C340.85,315.02 341.03,314.85 340.68,314.30 C340.34,313.74 341.66,311.42 343.61,309.14 C345.56,306.87 346.92,305.00 346.63,305.00 C346.34,305.00 347.66,302.26 349.55,298.90 C351.45,295.55 353.00,292.28 353.00,291.63 C353.00,290.98 353.67,289.48 354.50,288.30 C355.32,287.13 355.72,285.44 355.38,284.55 C354.85,283.15 354.17,283.29 350.13,285.61 C347.58,287.07 344.60,289.02 343.50,289.94 C340.32,292.59 331.37,297.83 313.00,307.77 C310.52,309.11 306.70,311.23 304.50,312.49 C302.30,313.74 299.26,315.05 297.74,315.40 C296.22,315.75 290.87,318.06 285.84,320.53 C277.88,324.43 250.56,335.62 227.00,344.64 C222.30,346.44 219.50,348.07 219.50,349.00 C219.50,349.92 221.79,351.30 225.45,352.60 C231.72,354.82 234.77,357.90 229.38,356.57 C227.80,356.17 226.36,355.46 226.19,354.98 C226.01,354.50 225.22,354.36 224.44,354.66 C223.65,354.97 223.00,354.69 223.00,354.05 C223.00,353.41 222.58,353.14 222.07,353.46 C221.56,353.77 220.85,353.57 220.50,353.00 C220.15,352.43 219.44,352.23 218.93,352.54 C218.42,352.86 218.00,352.64 218.00,352.06 C218.00,351.48 217.66,351.10 217.25,351.21 C216.84,351.33 215.53,350.89 214.34,350.23 C212.62,349.27 211.33,349.32 208.06,350.48 C192.72,355.89 160.67,363.28 143.17,365.44 C129.12,367.17 112.67,368.34 111.99,367.65 ZM 244.00 359.06 C244.00,358.55 242.43,358.38 240.50,358.69 C238.28,359.05 237.00,358.86 237.00,358.16 C237.00,357.56 236.38,357.30 235.63,357.59 C234.88,357.88 234.02,357.49 233.73,356.73 C233.30,355.61 234.07,355.50 237.85,356.16 C240.41,356.61 244.85,357.27 247.72,357.63 C250.60,357.98 252.71,358.66 252.42,359.14 C251.69,360.31 244.00,360.24 244.00,359.06 ZM 125.25 354.88 C123.46,354.37 122.00,353.53 122.00,353.02 C122.00,351.60 115.13,350.02 111.84,350.68 C109.63,351.12 108.31,350.70 106.46,348.96 C105.11,347.69 104.01,346.17 104.02,345.58 C104.02,344.98 104.47,345.17 105.00,346.00 C105.67,347.03 105.97,347.10 105.98,346.23 C105.99,345.53 104.88,344.44 103.50,343.82 C102.12,343.19 101.00,342.08 101.00,341.34 C101.00,340.60 100.52,340.00 99.94,340.00 C99.36,340.00 99.16,339.55 99.50,339.00 C99.84,338.45 99.71,338.00 99.22,338.00 C98.72,338.00 97.71,336.09 96.97,333.75 C96.22,331.41 94.86,328.50 93.94,327.28 C91.75,324.38 92.33,316.67 94.99,313.28 C96.07,311.92 97.24,309.22 97.61,307.28 C98.08,304.76 100.54,301.34 106.32,295.14 C110.75,290.39 115.38,286.09 116.61,285.59 C118.49,284.81 120.63,285.94 130.49,292.91 C136.90,297.44 142.90,301.75 143.82,302.49 C144.74,303.24 150.00,307.44 155.50,311.83 C161.00,316.22 167.30,322.16 169.50,325.03 C171.70,327.91 175.64,332.43 178.25,335.10 C184.40,341.36 184.46,344.14 178.49,345.55 C176.85,345.94 173.97,347.18 172.10,348.30 C169.55,349.84 167.18,350.31 162.66,350.18 C158.46,350.07 155.84,350.53 154.06,351.70 C152.24,352.89 148.99,353.44 142.87,353.59 C138.12,353.71 133.32,354.30 132.19,354.90 C129.84,356.16 129.66,356.15 125.25,354.88 ZM 356.65 306.53 C356.34,305.72 356.49,304.81 356.98,304.51 C358.19,303.77 361.72,296.18 362.44,292.79 C363.09,289.74 371.79,278.84 375.54,276.38 C376.89,275.50 379.66,273.25 381.69,271.39 C383.73,269.52 386.02,268.00 386.78,268.00 C387.55,268.00 391.62,264.85 395.84,261.00 C400.05,257.16 404.00,254.01 404.60,254.00 C405.21,254.00 406.98,252.82 408.53,251.39 C411.23,248.88 411.73,248.79 420.74,249.19 C430.57,249.62 433.17,250.85 430.69,253.90 C428.75,256.29 358.99,308.00 357.70,308.00 C357.43,308.00 356.96,307.34 356.65,306.53 ZM 149.00 303.93 C147.62,302.84 141.04,297.95 134.36,293.06 C127.69,288.18 121.91,283.66 121.52,283.03 C120.04,280.63 122.22,276.90 127.41,272.98 C130.37,270.75 133.01,268.07 133.28,267.03 C133.81,265.01 139.73,263.30 142.51,264.36 C144.58,265.16 146.20,269.66 146.15,274.50 C146.13,276.70 147.16,280.98 148.44,284.00 C155.04,299.64 156.42,304.12 154.94,305.06 C152.86,306.37 151.81,306.17 149.00,303.93 ZM 156.34 285.20 C153.11,277.31 151.54,265.24 151.61,249.00 C151.68,234.53 152.01,231.30 154.30,222.71 C159.87,201.78 170.27,183.59 185.44,168.23 C190.48,163.12 194.47,158.80 194.30,158.64 C194.14,158.47 194.60,158.33 195.33,158.33 C196.06,158.33 198.71,156.92 201.22,155.19 C235.90,131.33 282.52,132.60 318.00,158.37 C326.40,164.47 337.06,175.62 343.00,184.50 C345.94,188.90 348.72,192.65 349.18,192.84 C349.64,193.02 349.76,193.58 349.45,194.09 C349.14,194.59 349.39,195.00 350.00,195.00 C350.61,195.00 350.84,195.45 350.50,196.00 C350.16,196.55 350.39,197.00 351.00,197.00 C351.61,197.00 351.84,197.45 351.50,198.00 C351.16,198.55 351.39,199.00 352.00,199.00 C352.61,199.00 352.86,199.41 352.55,199.91 C352.24,200.42 352.53,201.01 353.19,201.23 C354.10,201.53 354.11,201.81 353.24,202.35 C352.50,202.81 351.01,200.89 349.08,197.00 C347.43,193.67 343.94,188.14 341.34,184.72 C335.65,177.25 323.76,165.00 322.19,165.00 C321.58,165.00 320.62,164.16 320.07,163.12 C319.51,162.09 316.69,159.74 313.78,157.90 C310.88,156.05 307.91,153.97 307.18,153.27 C306.45,152.57 305.21,152.00 304.42,152.00 C303.64,152.00 300.64,150.86 297.76,149.48 C294.88,148.09 287.34,145.78 281.01,144.36 C271.16,142.14 268.13,141.86 260.00,142.41 C235.77,144.05 216.39,150.73 204.40,161.57 C200.22,165.35 200.17,166.00 204.03,166.00 C205.78,166.00 207.30,166.62 207.63,167.47 C208.43,169.55 199.40,182.74 195.96,184.52 C190.90,187.14 189.16,186.53 188.81,182.01 L 188.50 178.03 L 181.54 182.76 C175.17,187.10 174.22,188.22 170.33,196.00 C167.99,200.68 165.68,204.96 165.20,205.53 C163.69,207.32 156.30,226.25 154.87,232.00 C153.99,235.53 153.51,243.22 153.52,253.50 C153.54,266.96 153.91,270.90 155.86,278.33 C158.18,287.20 158.39,290.22 156.34,285.20 ZM 101.00 268.25 C91.23,261.59 81.00,253.78 81.00,252.96 C81.00,249.04 81.30,249.00 107.61,249.00 C127.97,249.00 133.00,249.26 133.00,250.32 C133.00,252.08 119.54,264.27 116.43,265.34 C115.08,265.80 112.67,267.48 111.07,269.09 C109.46,270.69 107.78,272.00 107.33,272.00 C106.87,272.00 104.02,270.31 101.00,268.25 ZM 252.00 266.20 C245.67,262.88 243.20,260.31 240.31,254.00 C237.83,248.57 237.82,248.44 239.46,243.21 C241.43,236.96 245.72,231.72 250.25,230.04 C252.04,229.38 254.15,228.50 254.93,228.10 C256.81,227.14 266.38,230.69 269.37,233.47 C272.95,236.79 276.24,247.62 274.99,252.00 C272.75,259.85 269.90,263.16 263.00,265.94 L 256.50 268.55 L 252.00 266.20 ZM 371.17 251.82 C371.43,250.01 372.23,249.43 374.83,249.18 C377.81,248.89 378.12,249.10 377.83,251.18 C377.57,252.99 376.77,253.57 374.17,253.82 C371.19,254.11 370.88,253.90 371.17,251.82 ZM 437.78 251.42 C437.18,250.09 436.32,249.00 435.87,249.00 C435.43,249.00 436.00,247.43 437.13,245.50 C438.27,243.57 439.54,242.00 439.95,242.00 C441.01,242.00 446.00,246.73 446.00,247.73 C446.00,249.43 442.99,252.77 440.97,253.30 C439.44,253.70 438.59,253.20 437.78,251.42 ZM 68.61 251.70 C65.87,249.70 66.82,244.78 70.16,243.61 C72.16,242.91 73.20,243.06 74.36,244.22 C75.21,245.07 75.63,246.04 75.29,246.38 C74.95,246.72 75.19,247.00 75.83,247.00 C77.51,247.00 77.27,249.59 75.43,251.43 C73.52,253.34 70.98,253.44 68.61,251.70 ZM 80.95 244.90 C79.69,242.54 81.16,240.98 92.34,232.78 C95.56,230.43 100.96,226.35 104.34,223.73 C107.73,221.11 110.95,218.63 111.50,218.23 C112.06,217.83 115.21,215.50 118.50,213.06 C124.79,208.39 131.92,203.17 144.52,194.00 C148.67,190.98 154.25,186.84 156.92,184.82 C162.80,180.35 164.97,179.81 166.01,182.56 C166.61,184.13 165.99,185.55 163.40,188.55 C161.53,190.71 160.00,193.10 160.00,193.86 C160.00,195.60 153.79,207.00 152.84,207.00 C152.46,207.00 151.61,209.58 150.95,212.73 C150.30,215.88 148.69,220.80 147.38,223.67 C145.88,226.94 145.00,230.73 145.00,233.88 C145.00,237.80 144.46,239.51 142.52,241.70 C141.15,243.24 139.56,245.06 138.98,245.75 C138.18,246.69 131.11,247.00 110.00,247.00 C82.64,247.00 82.05,246.96 80.95,244.90 ZM 371.25 244.36 C370.08,242.91 368.85,239.88 368.51,237.61 C366.07,221.26 364.66,214.30 363.54,213.00 C361.53,210.68 359.02,205.32 359.64,204.69 C360.32,204.01 353.08,188.64 351.85,188.16 C351.38,187.98 351.24,187.42 351.55,186.91 C351.86,186.41 351.67,186.00 351.12,186.00 C350.58,186.00 349.56,184.43 348.86,182.50 C348.17,180.57 347.21,179.00 346.74,179.00 C346.27,179.00 346.17,178.53 346.53,177.95 C347.11,177.02 348.61,177.90 355.50,183.21 C361.23,187.63 374.34,197.66 377.50,200.04 C399.76,216.83 409.00,224.22 409.00,225.20 C409.00,226.35 393.43,242.00 392.29,242.00 C391.86,242.00 390.19,243.13 388.59,244.50 C386.18,246.58 384.66,247.00 379.53,247.00 C374.08,247.00 373.13,246.70 371.25,244.36 ZM 417.00 245.54 C417.00,243.70 420.73,240.11 423.93,238.86 C427.17,237.60 431.25,241.34 430.36,244.75 C429.82,246.79 429.16,247.00 423.38,247.00 C418.45,247.00 417.00,246.67 417.00,245.54 ZM 430.74 237.04 C427.91,233.00 430.65,227.87 436.40,226.43 C438.61,225.88 439.11,226.01 438.51,226.98 C438.08,227.67 437.22,230.55 436.59,233.36 C435.33,239.05 433.12,240.44 430.74,237.04 ZM 360.62 233.95 C359.68,229.55 354.90,209.53 354.50,208.30 C354.26,207.58 354.70,207.33 355.59,207.67 C356.41,207.99 356.92,208.75 356.71,209.36 C356.51,209.98 356.97,211.12 357.75,211.89 C358.52,212.66 358.92,214.19 358.64,215.28 C358.35,216.37 358.80,217.94 359.63,218.77 C360.57,219.71 360.92,221.19 360.55,222.64 C360.19,224.08 360.40,225.00 361.10,225.00 C361.74,225.00 362.01,225.87 361.71,227.00 C361.42,228.10 361.60,229.00 362.09,229.00 C363.27,229.00 363.24,233.07 362.05,234.95 C361.33,236.09 361.03,235.88 360.62,233.95 ZM 407.50 219.79 C383.47,202.57 342.00,170.45 342.00,169.05 C342.00,167.53 344.51,166.27 348.85,165.61 C351.25,165.24 354.49,164.28 356.06,163.47 C357.62,162.66 359.76,162.00 360.82,162.00 C361.88,162.00 365.39,161.17 368.62,160.15 C377.45,157.36 393.76,156.59 402.45,158.56 C406.33,159.43 410.40,160.33 411.50,160.54 C412.60,160.76 415.54,162.89 418.02,165.29 C421.41,168.54 423.05,171.20 424.52,175.82 C425.61,179.22 426.72,182.00 427.00,182.00 C427.27,182.00 427.62,183.47 427.77,185.25 C427.91,187.04 428.17,189.36 428.35,190.41 C428.52,191.46 427.90,193.94 426.96,195.91 C426.03,197.88 424.97,201.12 424.61,203.11 C423.61,208.65 414.34,222.05 411.56,221.97 C410.98,221.95 409.15,220.97 407.50,219.79 ZM 427.00 174.06 C427.00,173.54 427.45,172.84 428.00,172.50 C428.55,172.16 429.00,172.58 429.00,173.44 C429.00,174.30 428.55,175.00 428.00,175.00 C427.45,175.00 427.00,174.58 427.00,174.06 ZM 319.63 149.66 C314.11,146.68 313.24,145.67 304.93,132.50 C281.37,95.19 280.55,94.00 278.50,94.08 C277.40,94.12 277.06,94.38 277.75,94.66 C278.44,94.94 279.00,95.69 279.00,96.33 C279.00,96.97 280.13,98.81 281.50,100.41 C282.88,102.00 284.00,103.74 284.00,104.25 C284.00,105.80 291.21,117.00 292.20,117.00 C292.71,117.00 292.88,117.39 292.58,117.87 C291.93,118.93 297.81,128.00 299.15,128.00 C299.68,128.00 299.84,128.45 299.50,129.00 C299.16,129.55 299.39,130.00 300.00,130.00 C300.61,130.00 300.87,130.39 300.58,130.87 C300.28,131.35 301.13,132.93 302.47,134.37 C303.81,135.82 304.69,137.00 304.42,137.00 C304.15,137.00 304.36,137.81 304.90,138.80 C307.00,142.74 304.82,143.08 294.45,140.47 C280.56,136.96 267.93,134.80 265.26,135.47 C264.02,135.78 261.88,135.76 260.50,135.41 L 258.00 134.78 L 258.00 103.86 C258.00,69.62 258.06,69.35 264.06,74.40 C265.76,75.83 266.78,77.01 266.33,77.02 C265.87,77.02 265.95,77.36 266.50,77.77 C267.05,78.17 268.31,80.07 269.30,82.00 C271.99,87.24 273.75,89.28 274.93,88.54 C276.56,87.53 276.30,86.78 272.08,80.24 C269.92,76.91 268.42,73.91 268.75,73.59 C269.07,73.26 268.88,73.00 268.33,73.00 C266.95,73.00 264.93,68.34 265.58,66.65 C265.87,65.89 267.18,64.79 268.48,64.19 C273.74,61.79 305.11,67.37 321.91,73.69 C345.14,82.43 369.57,99.13 388.04,118.90 C403.55,135.49 405.28,139.00 397.97,139.00 C395.75,139.00 392.32,139.68 390.35,140.50 C388.37,141.32 385.54,142.00 384.06,142.00 C382.58,142.00 379.02,142.69 376.17,143.54 C373.31,144.39 369.51,145.26 367.73,145.47 C365.96,145.68 361.88,146.80 358.68,147.96 C352.33,150.26 342.19,151.99 332.00,152.50 C326.26,152.79 324.82,152.46 319.63,149.66 ZM 204.50 147.01 C204.16,146.45 204.36,146.00 204.94,146.00 C205.52,146.00 205.91,145.66 205.80,145.25 C205.69,144.84 206.93,142.37 208.55,139.77 C210.17,137.17 213.30,132.05 215.50,128.39 C217.70,124.73 223.10,115.94 227.50,108.87 C231.90,101.79 237.48,92.74 239.90,88.75 C247.98,75.43 250.48,72.05 252.28,72.03 C254.37,72.00 254.73,72.83 255.47,79.50 C256.17,85.84 256.12,132.99 255.41,134.14 C255.12,134.61 253.30,135.00 251.38,135.00 C249.45,135.00 247.04,135.44 246.03,135.98 C245.02,136.53 240.89,137.25 236.85,137.58 C232.29,137.97 228.53,138.87 226.96,139.97 C224.59,141.63 219.18,143.39 216.21,143.48 C215.50,143.50 214.60,144.00 214.21,144.58 C212.76,146.75 205.47,148.58 204.50,147.01 ZM 230.00 101.69 C230.00,100.63 243.36,79.02 243.76,79.43 C243.97,79.63 241.13,84.68 237.45,90.65 C230.36,102.17 230.00,102.70 230.00,101.69 ZM 252.53 63.22 C250.41,57.69 254.57,53.36 259.47,55.99 C260.83,56.71 261.70,57.68 261.41,58.15 C261.12,58.62 261.32,59.00 261.85,59.00 C262.38,59.00 262.58,59.90 262.29,61.00 C262.00,62.10 261.26,63.01 260.63,63.02 C259.83,63.03 259.84,63.25 260.68,63.78 C261.33,64.19 259.88,64.55 257.46,64.57 C254.60,64.60 252.88,64.12 252.53,63.22 Z" fill="rgb(245,246,248)"/>
</g>
</svg>