<svg xmlns="http://www.w3.org/2000/svg" width="1024" height="1024" viewBox="0 0 1024 1024">
<g>
<path d="M 420.50 688.01 C414.45,689.67 408.80,691.25 407.94,691.53 C405.92,692.16 387.43,679.52 374.66,668.78 C361.78,657.94 345.32,638.96 335.58,623.71 C322.11,602.61 312.03,578.85 306.01,554.00 C305.54,552.08 304.69,548.70 304.12,546.50 C301.74,537.28 298.82,504.59 299.48,494.50 C300.71,475.82 305.01,450.02 308.82,438.50 C309.37,436.85 310.56,433.02 311.47,430.00 C313.59,422.99 319.89,407.53 324.31,398.50 C334.09,378.52 346.98,360.35 363.62,343.07 C397.02,308.40 437.52,287.66 487.00,279.88 C497.73,278.20 528.89,278.15 539.50,279.80 C592.00,287.99 638.20,313.64 671.28,352.96 C679.02,362.16 680.41,364.05 688.19,375.89 C708.81,407.28 719.59,437.08 725.05,477.76 C727.16,493.47 724.87,541.12 721.90,543.32 C720.68,544.24 707.22,553.55 699.00,559.18 C665.92,581.82 600.10,617.34 551.00,639.05 C540.47,643.70 491.16,664.00 490.38,664.00 C490.11,664.00 488.00,664.84 485.70,665.88 C480.34,668.27 467.27,672.94 454.50,677.02 C449.00,678.78 441.58,681.29 438.00,682.60 C434.42,683.91 426.55,686.35 420.50,688.01 ZM 261.37 751.51 C240.43,754.57 234.46,755.05 212.02,755.45 C186.65,755.90 178.24,755.30 163.75,752.01 C149.78,748.83 136.72,742.38 128.14,734.40 C111.89,719.29 106.46,699.11 112.41,675.94 C118.52,652.20 136.62,624.27 162.50,598.69 C175.48,585.86 208.92,557.64 228.00,543.41 C251.16,526.15 287.44,502.54 289.16,503.60 C289.62,503.89 290.00,507.21 290.00,510.99 L 290.00 517.86 L 279.75 524.64 C231.09,556.79 184.77,599.90 163.62,632.73 C138.99,670.98 143.97,703.21 177.08,719.79 C192.47,727.50 211.48,731.00 237.91,731.00 C252.52,731.00 273.25,729.64 283.50,728.02 C308.27,724.09 317.76,722.38 334.00,718.94 C351.12,715.32 366.49,711.53 415.00,698.97 C425.17,696.33 437.33,692.98 442.00,691.51 C446.67,690.04 454.33,687.70 459.00,686.29 C469.68,683.08 507.17,669.17 520.74,663.37 C526.37,660.97 531.23,659.00 531.53,659.00 C534.54,659.00 619.65,618.73 624.50,615.01 C625.05,614.59 631.58,610.96 639.00,606.94 C654.18,598.73 687.53,578.85 694.16,574.07 C696.55,572.34 704.12,567.06 711.00,562.33 C742.80,540.46 784.08,506.97 815.14,477.86 C864.08,431.98 891.51,395.94 902.17,363.50 C902.96,361.10 903.49,354.71 903.49,347.50 C903.50,336.79 903.24,334.96 901.05,330.50 C899.71,327.75 896.34,323.10 893.58,320.17 C883.11,309.06 868.13,303.12 842.55,299.94 C817.85,296.87 766.19,302.86 728.50,313.17 C722.45,314.83 715.03,316.83 712.00,317.63 C689.02,323.67 682.31,325.51 673.66,328.14 L 663.83 331.14 L 658.52 326.32 C655.60,323.67 653.17,321.20 653.11,320.84 C652.97,320.01 693.36,306.64 717.74,299.45 C778.63,281.47 841.30,272.25 876.79,276.04 C915.35,280.15 935.00,293.19 940.52,318.34 C945.08,339.11 936.56,365.90 915.12,398.16 C884.74,443.89 800.61,520.47 726.89,569.50 C713.47,578.43 713.34,578.55 711.03,584.50 C707.95,592.44 700.95,606.41 695.99,614.51 C693.80,618.10 692.00,621.27 692.00,621.57 C692.00,621.86 688.13,627.28 683.39,633.61 C659.66,665.37 632.53,688.27 600.50,703.61 C577.93,714.41 557.81,719.70 528.91,722.44 C499.88,725.19 463.00,719.62 439.87,709.00 C437.59,707.95 435.47,708.34 423.87,711.96 C416.52,714.26 409.38,716.51 408.00,716.97 C396.04,720.99 359.36,731.13 339.50,735.92 C298.75,745.73 292.99,746.88 261.37,751.51 ZM 154.17 593.70 C151.05,596.57 148.24,598.93 147.92,598.95 C147.18,599.01 139.56,568.26 137.52,557.00 C136.11,549.20 133.03,524.59 133.01,520.95 C133.00,520.08 131.41,518.83 129.39,518.09 C124.48,516.32 118.72,510.93 116.52,506.04 L 114.70 502.00 L 83.04 502.00 L 77.57 505.50 C74.56,507.42 71.29,508.99 70.30,508.98 C68.36,508.96 52.00,497.40 52.00,496.05 C52.00,494.73 68.67,483.00 70.54,483.00 C71.48,483.00 74.94,484.80 78.24,487.00 L 84.23 491.00 L 114.04 491.00 L 115.23 488.25 C118.07,481.67 122.08,477.11 127.28,474.57 L 132.56 471.98 L 134.25 455.24 C135.82,439.54 139.76,414.88 141.95,407.00 C142.48,405.08 143.89,399.90 145.07,395.50 C158.13,346.93 181.30,300.29 211.77,261.21 C238.40,227.05 272.85,195.64 307.00,174.35 C323.86,163.84 327.67,161.68 342.08,154.45 C373.32,138.80 399.27,129.43 430.50,122.54 C449.68,118.31 456.99,117.19 483.21,114.46 L 488.91 113.87 L 491.40 108.44 C494.28,102.14 497.62,98.74 504.25,95.38 L 509.00 92.97 L 509.00 61.94 L 504.56 55.31 C500.17,48.77 500.13,48.65 501.69,45.59 C505.32,38.50 512.62,28.99 514.42,29.01 C515.02,29.02 516.48,30.48 517.67,32.26 C518.87,34.04 521.68,38.15 523.92,41.38 C526.17,44.62 528.00,47.59 528.00,47.98 C528.00,48.37 526.19,51.49 523.98,54.90 L 519.97 61.12 L 519.57 74.81 C519.35,82.34 519.39,89.64 519.66,91.03 C520.02,92.87 521.66,94.35 525.68,96.46 C531.62,99.57 535.78,104.67 536.91,110.24 C537.07,111.05 537.15,111.67 537.44,112.17 C538.46,113.94 542.11,114.19 561.50,116.00 C568.10,116.62 574.85,117.52 576.50,118.00 C578.15,118.48 582.65,119.38 586.50,119.99 C593.30,121.07 611.42,125.20 617.50,127.06 C663.98,141.22 699.19,158.31 738.26,185.67 C757.04,198.82 781.76,221.19 798.18,239.87 C815.10,259.14 821.34,267.06 820.38,268.02 C819.89,268.49 816.12,269.14 812.00,269.46 L 804.50 270.04 L 797.50 261.39 C787.40,248.91 759.25,220.95 746.50,210.73 C687.08,163.15 625.72,137.63 551.29,129.54 C543.48,128.69 536.87,128.00 536.61,128.00 C536.35,128.00 535.17,129.35 534.00,131.00 L 531.86 134.01 L 537.87 143.75 C541.18,149.11 545.40,155.98 547.26,159.00 C549.12,162.02 553.42,168.89 556.82,174.26 C560.22,179.62 563.00,184.21 563.00,184.44 C563.00,184.67 564.73,187.48 566.85,190.68 C568.97,193.88 573.85,201.68 577.71,208.00 C585.27,220.41 611.63,262.40 618.51,273.00 C620.83,276.58 625.78,284.45 629.50,290.50 C633.22,296.55 636.88,302.50 637.63,303.71 C640.36,308.14 638.81,307.72 628.34,301.19 C620.03,296.01 617.10,293.58 615.09,290.20 C613.66,287.81 606.81,276.77 599.85,265.67 C574.52,225.29 566.83,212.88 546.46,179.50 C535.05,160.80 525.09,144.49 524.33,143.25 C523.58,142.01 522.29,141.00 521.48,141.00 C520.21,141.00 519.98,149.34 519.76,203.75 L 519.50 266.50 L 514.25 266.80 C510.46,267.02 508.99,266.74 508.96,265.80 C508.94,265.09 508.94,236.97 508.97,203.32 C509.01,157.55 508.73,141.95 507.85,141.41 C506.45,140.54 505.02,142.32 499.00,152.42 C490.38,166.87 458.31,218.43 440.90,245.82 C435.06,254.99 426.56,268.58 422.00,276.00 C417.43,283.42 412.95,290.60 412.04,291.94 C410.41,294.33 389.92,307.21 389.07,306.39 C388.84,306.16 389.62,304.65 390.82,303.03 C392.02,301.41 393.00,299.88 393.00,299.63 C393.00,299.19 397.52,291.99 427.01,245.50 C457.75,197.05 466.65,182.92 473.01,172.50 C476.70,166.45 482.88,156.52 486.73,150.43 C487.29,149.55 487.82,148.72 488.31,147.93 C494.34,138.42 495.86,136.03 495.40,134.11 C495.21,133.31 494.67,132.59 493.98,131.46 C492.36,128.85 491.31,128.11 489.67,128.44 C488.48,128.69 483.02,129.17 477.54,129.52 C462.72,130.46 440.44,134.49 419.50,140.01 C362.82,154.95 309.10,184.79 264.26,226.22 C219.70,267.40 187.89,316.00 166.56,375.50 C158.86,396.95 150.11,439.23 148.43,463.07 L 147.75 472.65 L 154.34 476.82 L 162.92 470.98 C167.64,467.77 174.20,463.23 177.50,460.90 C188.02,453.48 218.08,432.62 241.65,416.38 C254.22,407.73 268.33,398.00 273.00,394.76 C277.67,391.52 285.10,386.41 289.50,383.40 C293.90,380.40 301.55,375.04 306.50,371.50 C322.74,359.88 347.01,343.68 347.48,344.15 C347.73,344.40 346.09,346.83 343.83,349.55 C341.58,352.27 337.27,357.99 334.28,362.26 C330.23,368.01 327.03,371.24 321.87,374.76 C313.95,380.16 302.27,388.30 283.50,401.51 C276.35,406.55 264.20,414.94 256.50,420.17 C248.80,425.40 236.65,433.65 229.50,438.51 C213.18,449.59 183.54,470.15 170.80,479.21 C162.20,485.33 161.20,486.36 161.92,488.31 L 162.73 490.50 L 225.86 490.76 C260.59,490.90 289.00,491.36 289.00,491.77 C289.00,492.19 286.59,493.97 283.65,495.73 C280.71,497.49 277.73,499.62 277.03,500.47 C275.91,501.81 268.79,502.00 218.99,502.00 C163.16,502.00 162.22,502.03 161.71,503.99 C161.28,505.63 164.59,508.47 180.68,520.24 C191.39,528.08 201.15,535.17 202.37,536.00 C207.22,539.29 212.00,543.28 212.00,544.03 C212.00,544.47 210.13,546.20 207.84,547.89 L 203.68 550.95 L 197.09 546.29 C190.13,541.37 189.54,540.94 178.50,532.69 C174.65,529.81 167.77,524.83 163.20,521.62 C155.22,516.02 154.79,515.85 151.82,517.07 L 148.74 518.35 L 149.44 528.93 C150.17,540.04 154.36,565.60 157.81,580.00 L 159.84 588.50 ZM 520.18 946.50 C517.70,949.80 515.39,952.84 515.03,953.26 C514.19,954.24 510.45,950.13 504.60,941.80 C502.19,938.37 500.87,936.63 500.77,934.82 C500.66,932.79 502.10,930.67 505.28,925.98 C505.50,925.66 505.72,925.34 505.95,925.00 C508.95,920.56 508.99,920.34 508.99,907.50 L 508.99 894.50 L 504.55 892.68 C499.09,890.43 492.53,883.50 490.98,878.33 L 489.82 874.47 L 473.61 872.71 C464.69,871.74 455.84,870.55 453.94,870.07 C452.05,869.60 446.00,868.44 440.50,867.50 C435.00,866.57 428.25,865.19 425.50,864.44 C402.60,858.18 396.43,856.38 389.00,853.77 C384.33,852.13 378.70,849.99 376.50,849.00 C374.30,848.01 369.58,846.01 366.00,844.54 C347.35,836.87 318.48,820.89 298.50,807.17 C276.28,791.92 243.63,764.31 246.19,762.95 C246.91,762.56 251.12,761.95 255.54,761.57 L 263.58 760.90 L 271.04 767.42 C316.50,807.18 370.93,835.98 426.00,849.41 C451.49,855.63 460.10,857.17 479.47,858.97 C491.37,860.07 491.44,860.07 493.19,857.79 C494.16,856.53 494.97,854.95 494.98,854.27 C495.00,852.91 491.56,847.14 479.00,827.50 C465.35,806.15 452.10,785.16 445.23,774.00 C441.67,768.22 436.85,760.58 434.51,757.00 C428.44,747.71 416.16,727.59 415.46,725.77 C415.01,724.59 416.05,723.95 419.95,723.01 C422.74,722.34 425.63,722.03 426.37,722.31 C427.10,722.59 428.97,725.00 430.52,727.66 C435.28,735.86 458.28,772.82 476.37,801.35 C485.83,816.28 495.67,831.88 498.22,836.00 C498.61,836.63 498.99,837.24 499.35,837.82 C502.92,843.61 505.15,847.22 506.53,846.92 C508.82,846.43 508.76,835.10 508.60,804.92 C508.59,803.09 508.58,801.18 508.57,799.21 C508.44,774.07 508.56,749.11 508.82,743.75 L 509.30 734.00 L 519.98 734.00 L 520.24 790.17 C520.44,832.69 520.79,846.43 521.70,846.73 C522.36,846.95 525.43,843.16 528.53,838.32 C531.62,833.47 540.08,820.25 547.33,808.94 C563.84,783.18 566.90,778.31 589.66,741.72 C607.76,712.62 608.30,711.88 613.33,709.33 C616.16,707.90 620.16,705.66 622.22,704.36 C627.51,701.02 628.55,701.41 625.96,705.75 C624.73,707.81 622.71,711.30 621.47,713.50 C620.23,715.70 616.80,721.21 613.86,725.75 C610.91,730.29 603.78,741.66 598.00,751.03 C592.22,760.39 585.83,770.63 583.78,773.77 C581.73,776.92 578.83,781.53 577.33,784.00 C575.83,786.47 565.24,803.02 553.80,820.77 C542.36,838.52 533.01,853.59 533.02,854.27 C533.03,854.95 533.86,856.56 534.85,857.85 C536.66,860.19 536.68,860.20 548.08,859.10 C569.26,857.06 587.65,853.74 607.50,848.37 C665.56,832.64 715.88,804.84 761.58,763.23 C785.15,741.77 809.73,712.41 825.62,686.72 C852.66,643.02 873.12,585.07 877.94,538.50 C878.51,533.00 879.26,526.21 879.61,523.42 C880.23,518.42 880.19,518.32 877.00,517.00 C876.22,516.68 875.69,516.35 875.11,516.22 C872.96,515.71 870.19,517.79 851.33,531.97 C849.51,533.34 847.55,534.82 845.42,536.41 C832.18,546.36 817.78,557.11 813.42,560.31 C804.74,566.68 764.49,595.87 754.66,602.93 C751.27,605.36 738.15,614.84 725.50,623.99 C696.87,644.70 684.07,653.40 683.32,652.66 C683.01,652.34 684.54,649.92 686.73,647.29 C688.91,644.66 692.89,639.19 695.57,635.14 C698.73,630.37 702.26,626.51 705.63,624.14 C708.49,622.14 722.60,611.95 736.99,601.50 C751.37,591.05 765.95,580.47 769.38,578.00 C772.81,575.53 782.72,568.33 791.41,562.00 C856.59,514.55 866.95,506.53 866.30,504.04 C865.79,502.07 865.04,502.00 846.05,502.00 C835.21,502.00 826.06,501.72 825.72,501.39 C825.38,501.05 827.45,498.59 830.30,495.92 L 835.50 491.08 L 850.28 491.04 C864.68,491.00 865.09,490.94 865.91,488.75 C867.02,485.82 866.93,485.70 859.84,480.89 L 853.81 476.79 L 857.10 473.40 C858.91,471.53 861.17,470.00 862.13,470.00 C863.09,470.00 866.18,471.44 869.00,473.19 C873.97,476.28 874.22,476.33 876.82,474.73 C879.47,473.10 879.50,472.96 879.20,463.43 L 878.89 453.78 L 884.99 447.43 C890.72,441.47 891.13,441.22 891.92,443.29 C892.38,444.51 893.05,448.88 893.41,453.00 C895.16,473.14 894.83,471.90 898.80,473.56 C904.77,476.05 908.40,479.47 911.39,485.38 L 914.24 491.00 L 943.91 491.00 L 949.62 487.00 C952.76,484.80 956.31,483.00 957.51,483.00 C958.70,483.00 963.39,485.90 967.92,489.44 L 976.15 495.87 L 967.85 502.44 C963.29,506.05 958.64,509.00 957.51,509.00 C956.39,509.00 953.13,507.42 950.28,505.50 L 945.08 502.00 L 913.18 502.00 L 911.00 506.50 C908.70,511.25 903.75,515.94 898.33,518.51 C894.64,520.26 894.94,519.05 892.58,541.50 C891.71,549.75 890.32,559.65 889.48,563.50 C888.65,567.35 887.51,572.73 886.97,575.47 C885.37,583.44 877.40,610.68 873.65,621.00 C865.89,642.36 857.46,661.05 847.83,678.29 C839.49,693.20 830.02,707.79 819.38,722.11 C797.39,751.71 762.70,784.74 728.88,808.29 C711.09,820.68 681.43,836.80 659.50,846.00 C625.30,860.35 580.33,871.47 547.66,873.66 C539.91,874.17 537.71,874.65 537.32,875.91 C534.79,884.09 529.76,890.20 523.37,892.85 L 520.26 894.13 L 519.72 907.32 L 519.19 920.50 L 523.64 927.85 C525.85,931.50 527.15,933.27 527.19,935.08 C527.24,937.14 525.66,939.24 521.91,944.20 C521.38,944.90 520.80,945.67 520.18,946.50 ZM 830.41 452.10 C828.31,454.24 826.12,455.98 825.55,455.95 C824.97,455.93 815.28,449.58 804.00,441.85 C792.72,434.11 776.53,423.04 768.00,417.24 C730.04,391.43 697.71,368.42 695.39,365.59 C689.72,358.63 678.08,342.59 678.44,342.22 C678.86,341.81 712.19,364.12 722.76,371.90 C726.21,374.43 737.46,382.26 747.76,389.31 C758.07,396.35 775.05,408.01 785.50,415.21 C795.95,422.41 811.19,432.78 819.36,438.25 L 834.22 448.19 ZM 340.14 644.97 C343.91,649.94 346.66,654.00 346.25,654.00 C345.32,653.99 337.93,648.98 322.66,638.00 C316.16,633.33 309.84,628.83 308.61,628.00 C307.38,627.17 300.34,622.00 292.95,616.50 C285.57,611.00 272.05,601.10 262.90,594.50 C253.75,587.90 241.95,579.38 236.68,575.57 L 227.10 568.64 L 230.24 566.32 C231.96,565.05 233.67,563.54 234.02,562.97 C235.02,561.34 239.03,563.27 248.11,569.72 C252.58,572.90 258.16,576.85 260.51,578.50 C262.86,580.15 269.90,585.24 276.14,589.82 C291.93,601.38 327.11,626.94 328.42,627.79 C329.01,628.18 330.35,630.18 331.39,632.22 C332.43,634.27 336.37,640.01 340.14,644.97 ZM 875.82 396.70 C873.02,401.26 870.58,405.00 870.40,405.00 C870.22,405.00 869.60,403.09 869.02,400.75 C868.44,398.41 865.50,388.94 862.49,379.71 C854.96,356.63 845.64,334.96 835.91,317.88 C833.21,313.14 831.00,308.94 831.00,308.54 C831.00,308.15 832.69,308.07 834.75,308.37 C836.81,308.67 840.84,309.20 843.71,309.55 L 848.92 310.18 L 854.37 320.84 C864.84,341.31 872.10,359.11 878.07,378.95 L 880.92 388.39 ZM 224.53 719.96 C223.89,720.98 222.86,721.01 212.26,720.26 L 207.02 719.90 L 201.25 711.70 C187.95,692.83 173.17,666.64 167.04,651.11 L 165.15 646.30 L 169.13 639.65 C171.32,635.99 173.57,633.00 174.13,633.00 C174.69,633.00 176.33,635.81 177.77,639.25 C187.72,663.02 207.51,696.95 221.79,714.71 C223.65,717.02 224.88,719.38 224.53,719.96 ZM 788.43 491.00 L 777.57 502.00 L 758.45 502.00 C747.94,502.00 739.03,501.70 738.67,501.33 C738.30,500.97 738.00,498.49 738.00,495.83 L 738.00 491.00 ZM 511.12 51.17 C513.66,54.73 514.36,54.71 517.00,51.00 L 519.14 48.00 L 517.00 45.00 C515.83,43.35 514.56,42.01 514.18,42.02 C513.81,42.03 512.51,43.45 511.30,45.18 L 509.10 48.33 ZM 954.26 498.60 L 957.49 500.69 L 960.26 498.65 C963.50,496.26 963.42,495.43 959.72,493.19 C957.19,491.65 956.81,491.65 954.28,493.19 C950.53,495.46 950.53,496.18 954.26,498.60 ZM 511.71 937.89 L 514.28 941.18 L 516.32 937.96 C518.16,935.06 518.22,934.48 516.93,932.20 C514.90,928.60 513.50,928.49 511.17,931.76 L 509.14 934.61 ZM 67.17 497.99 C70.12,500.45 71.21,500.46 74.14,498.08 L 76.50 496.17 L 74.08 493.58 C72.65,492.07 71.93,491.28 71.16,491.24 C70.36,491.18 69.51,491.93 67.75,493.48 L 67.67 493.55 L 64.84 496.05 Z" fill="rgb(94,69,178)"/>
<path d="M 0.00 512.00 L 0.00 0.00 L 512.00 0.00 L 1024.00 0.00 L 1024.00 512.00 L 1024.00 1024.00 L 512.00 1024.00 L 0.00 1024.00 L 0.00 512.00 ZM 520.18 946.50 C529.01,934.73 528.72,936.25 523.64,927.85 L 519.19 920.50 L 519.72 907.32 L 520.26 894.13 L 523.37 892.85 C529.76,890.20 534.79,884.09 537.32,875.91 C537.71,874.65 539.91,874.17 547.66,873.66 C580.33,871.47 625.30,860.35 659.50,846.00 C681.43,836.80 711.09,820.68 728.88,808.29 C762.70,784.74 797.39,751.71 819.38,722.11 C830.02,707.79 839.49,693.20 847.83,678.29 C857.46,661.05 865.89,642.36 873.65,621.00 C877.40,610.68 885.37,583.44 886.97,575.47 C887.51,572.73 888.65,567.35 889.48,563.50 C890.32,559.65 891.71,549.75 892.58,541.50 C894.94,519.05 894.64,520.26 898.33,518.51 C903.75,515.94 908.70,511.25 911.00,506.50 L 913.18 502.00 L 929.13 502.00 L 945.08 502.00 L 950.28 505.50 C953.13,507.42 956.39,509.00 957.51,509.00 C958.64,509.00 963.29,506.05 967.85,502.44 L 976.15 495.87 L 967.92 489.44 C963.39,485.90 958.70,483.00 957.51,483.00 C956.31,483.00 952.76,484.80 949.62,487.00 L 943.91 491.00 L 929.07 491.00 L 914.24 491.00 L 911.39 485.38 C908.40,479.47 904.77,476.05 898.80,473.56 C894.83,471.90 895.16,473.14 893.41,453.00 C893.05,448.88 892.38,444.51 891.92,443.29 C891.13,441.22 890.72,441.47 884.99,447.43 L 878.89 453.78 L 879.20 463.43 C879.50,472.96 879.47,473.10 876.82,474.73 C874.22,476.33 873.97,476.28 869.00,473.19 C866.18,471.44 863.09,470.00 862.13,470.00 C861.17,470.00 858.91,471.53 857.10,473.40 L 853.81 476.79 L 859.84 480.89 C866.93,485.70 867.02,485.82 865.91,488.75 C865.09,490.94 864.68,491.00 850.28,491.04 L 835.50 491.08 L 830.30 495.92 C827.45,498.59 825.38,501.05 825.72,501.39 C826.06,501.72 835.21,502.00 846.05,502.00 C865.04,502.00 865.79,502.07 866.30,504.04 C866.95,506.53 856.59,514.55 791.41,562.00 C782.72,568.33 772.81,575.53 769.38,578.00 C765.95,580.47 751.37,591.05 736.99,601.50 C722.60,611.95 708.49,622.14 705.63,624.14 C702.26,626.51 698.73,630.37 695.57,635.14 C692.89,639.19 688.91,644.66 686.73,647.29 C684.54,649.92 683.01,652.34 683.32,652.66 C684.07,653.40 696.87,644.70 725.50,623.99 C738.15,614.84 751.27,605.36 754.66,602.93 C764.49,595.87 804.74,566.68 813.42,560.31 C817.78,557.11 832.18,546.36 845.42,536.41 C875.58,513.76 873.00,515.34 877.00,517.00 C880.19,518.32 880.23,518.42 879.61,523.42 C879.26,526.21 878.51,533.00 877.94,538.50 C873.12,585.07 852.66,643.02 825.62,686.72 C809.73,712.41 785.15,741.77 761.58,763.23 C715.88,804.84 665.56,832.64 607.50,848.37 C587.65,853.74 569.26,857.06 548.08,859.10 C536.68,860.20 536.66,860.19 534.85,857.85 C533.86,856.56 533.03,854.95 533.02,854.27 C533.01,853.59 542.36,838.52 553.80,820.77 C565.24,803.02 575.83,786.47 577.33,784.00 C578.83,781.53 581.73,776.92 583.78,773.77 C585.83,770.63 592.22,760.39 598.00,751.03 C603.78,741.66 610.91,730.29 613.86,725.75 C616.80,721.21 620.23,715.70 621.47,713.50 C622.71,711.30 624.73,707.81 625.96,705.75 C628.55,701.41 627.51,701.02 622.22,704.36 C620.16,705.66 616.16,707.90 613.33,709.33 C608.30,711.88 607.76,712.62 589.66,741.72 C566.90,778.31 563.84,783.18 547.33,808.94 C540.08,820.25 531.62,833.47 528.53,838.32 C525.43,843.16 522.36,846.95 521.70,846.73 C520.79,846.43 520.44,832.69 520.24,790.17 L 519.98 734.00 L 514.64 734.00 L 509.30 734.00 L 508.82 743.75 C508.56,749.11 508.44,774.07 508.57,799.21 C508.86,855.19 509.25,853.80 498.22,836.00 C495.67,831.88 485.83,816.28 476.37,801.35 C458.28,772.82 435.28,735.86 430.52,727.66 C428.97,725.00 427.10,722.59 426.37,722.31 C425.63,722.03 422.74,722.34 419.95,723.01 C416.05,723.95 415.01,724.59 415.46,725.77 C416.16,727.59 428.44,747.71 434.51,757.00 C436.85,760.58 441.67,768.22 445.23,774.00 C452.10,785.16 465.35,806.15 479.00,827.50 C491.56,847.14 495.00,852.91 494.98,854.27 C494.97,854.95 494.16,856.53 493.19,857.79 C491.44,860.07 491.37,860.07 479.47,858.97 C460.10,857.17 451.49,855.63 426.00,849.41 C370.93,835.98 316.50,807.18 271.04,767.42 L 263.58 760.90 L 255.54 761.57 C251.12,761.95 246.91,762.56 246.19,762.95 C243.63,764.31 276.28,791.92 298.50,807.17 C318.48,820.89 347.35,836.87 366.00,844.54 C369.58,846.01 374.30,848.01 376.50,849.00 C378.70,849.99 384.33,852.13 389.00,853.77 C396.43,856.38 402.60,858.18 425.50,864.44 C428.25,865.19 435.00,866.57 440.50,867.50 C446.00,868.44 452.05,869.60 453.94,870.07 C455.84,870.55 464.69,871.74 473.61,872.71 L 489.82 874.47 L 490.98 878.33 C492.53,883.50 499.09,890.43 504.55,892.68 L 508.99 894.50 L 508.99 907.50 C508.99,920.34 508.95,920.56 505.95,925.00 C499.26,934.88 499.31,934.26 504.60,941.80 C510.45,950.13 514.19,954.24 515.03,953.26 C515.39,952.84 517.70,949.80 520.18,946.50 ZM 261.37 751.51 C292.99,746.88 298.75,745.73 339.50,735.92 C359.36,731.13 396.04,720.99 408.00,716.97 C409.38,716.51 416.52,714.26 423.87,711.96 C435.47,708.34 437.59,707.95 439.87,709.00 C463.00,719.62 499.88,725.19 528.91,722.44 C557.81,719.70 577.93,714.41 600.50,703.61 C632.53,688.27 659.66,665.37 683.39,633.61 C688.13,627.28 692.00,621.86 692.00,621.57 C692.00,621.27 693.80,618.10 695.99,614.51 C700.95,606.41 707.95,592.44 711.03,584.50 C713.34,578.55 713.47,578.43 726.89,569.50 C800.61,520.47 884.74,443.89 915.12,398.16 C936.56,365.90 945.08,339.11 940.52,318.34 C935.00,293.19 915.35,280.15 876.79,276.04 C841.30,272.25 778.63,281.47 717.74,299.45 C693.36,306.64 652.97,320.01 653.11,320.84 C653.17,321.20 655.60,323.67 658.52,326.32 L 663.83 331.14 L 673.66 328.14 C682.31,325.51 689.02,323.67 712.00,317.63 C715.03,316.83 722.45,314.83 728.50,313.17 C766.19,302.86 817.85,296.87 842.55,299.94 C868.13,303.12 883.11,309.06 893.58,320.17 C896.34,323.10 899.71,327.75 901.05,330.50 C903.24,334.96 903.50,336.79 903.49,347.50 C903.49,354.71 902.96,361.10 902.17,363.50 C891.51,395.94 864.08,431.98 815.14,477.86 C784.08,506.97 742.80,540.46 711.00,562.33 C704.12,567.06 696.55,572.34 694.16,574.07 C687.53,578.85 654.18,598.73 639.00,606.94 C631.58,610.96 625.05,614.59 624.50,615.01 C619.65,618.73 534.54,659.00 531.53,659.00 C531.23,659.00 526.37,660.97 520.74,663.37 C507.17,669.17 469.68,683.08 459.00,686.29 C454.33,687.70 446.67,690.04 442.00,691.51 C437.33,692.98 425.17,696.33 415.00,698.97 C366.49,711.53 351.12,715.32 334.00,718.94 C317.76,722.38 308.27,724.09 283.50,728.02 C273.25,729.64 252.52,731.00 237.91,731.00 C211.48,731.00 192.47,727.50 177.08,719.79 C143.97,703.21 138.99,670.98 163.62,632.73 C184.77,599.90 231.09,556.79 279.75,524.64 L 290.00 517.86 L 290.00 510.99 C290.00,507.21 289.62,503.89 289.16,503.60 C287.44,502.54 251.16,526.15 228.00,543.41 C208.92,557.64 175.48,585.86 162.50,598.69 C136.62,624.27 118.52,652.20 112.41,675.94 C106.46,699.11 111.89,719.29 128.14,734.40 C136.72,742.38 149.78,748.83 163.75,752.01 C178.24,755.30 186.65,755.90 212.02,755.45 C234.46,755.05 240.43,754.57 261.37,751.51 ZM 224.53 719.96 C224.88,719.38 223.65,717.02 221.79,714.71 C207.51,696.95 187.72,663.02 177.77,639.25 C176.33,635.81 174.69,633.00 174.13,633.00 C173.57,633.00 171.32,635.99 169.13,639.65 L 165.15 646.30 L 167.04 651.11 C173.17,666.64 187.95,692.83 201.25,711.70 L 207.02 719.90 L 212.26 720.26 C222.86,721.01 223.89,720.98 224.53,719.96 ZM 420.50 688.01 C426.55,686.35 434.42,683.91 438.00,682.60 C441.58,681.29 449.00,678.78 454.50,677.02 C467.27,672.94 480.34,668.27 485.70,665.88 C488.00,664.84 490.11,664.00 490.38,664.00 C491.16,664.00 540.47,643.70 551.00,639.05 C600.10,617.34 665.92,581.82 699.00,559.18 C707.22,553.55 720.68,544.24 721.90,543.32 C724.87,541.12 727.16,493.47 725.05,477.76 C719.59,437.08 708.81,407.28 688.19,375.89 C680.41,364.05 679.02,362.16 671.28,352.96 C638.20,313.64 592.00,287.99 539.50,279.80 C528.89,278.15 497.73,278.20 487.00,279.88 C437.52,287.66 397.02,308.40 363.62,343.07 C346.98,360.35 334.09,378.52 324.31,398.50 C319.89,407.53 313.59,422.99 311.47,430.00 C310.56,433.02 309.37,436.85 308.82,438.50 C305.01,450.02 300.71,475.82 299.48,494.50 C298.82,504.59 301.74,537.28 304.12,546.50 C304.69,548.70 305.54,552.08 306.01,554.00 C312.03,578.85 322.11,602.61 335.58,623.71 C345.32,638.96 361.78,657.94 374.66,668.78 C387.43,679.52 405.92,692.16 407.94,691.53 C408.80,691.25 414.45,689.67 420.50,688.01 ZM 340.14 644.97 C336.37,640.01 332.43,634.27 331.39,632.22 C330.35,630.18 329.01,628.18 328.42,627.79 C327.11,626.94 291.93,601.38 276.14,589.82 C269.90,585.24 262.86,580.15 260.51,578.50 C258.16,576.85 252.58,572.90 248.11,569.72 C239.03,563.27 235.02,561.34 234.02,562.97 C233.67,563.54 231.96,565.05 230.24,566.32 L 227.10 568.64 L 236.68 575.57 C241.95,579.38 253.75,587.90 262.90,594.50 C272.05,601.10 285.57,611.00 292.95,616.50 C300.34,622.00 307.38,627.17 308.61,628.00 C309.84,628.83 316.16,633.33 322.66,638.00 C337.93,648.98 345.32,653.99 346.25,654.00 C346.66,654.00 343.91,649.94 340.14,644.97 ZM 154.17 593.70 L 159.84 588.50 L 157.81 580.00 C154.36,565.60 150.17,540.04 149.44,528.93 L 148.74 518.35 L 151.82 517.07 C154.79,515.85 155.22,516.02 163.20,521.62 C167.77,524.83 174.65,529.81 178.50,532.69 C189.54,540.94 190.13,541.37 197.09,546.29 L 203.68 550.95 L 207.84 547.89 C210.13,546.20 212.00,544.47 212.00,544.03 C212.00,543.28 207.22,539.29 202.37,536.00 C201.15,535.17 191.39,528.08 180.68,520.24 C164.59,508.47 161.28,505.63 161.71,503.99 C162.22,502.03 163.16,502.00 218.99,502.00 C268.79,502.00 275.91,501.81 277.03,500.47 C277.73,499.62 280.71,497.49 283.65,495.73 C286.59,493.97 289.00,492.19 289.00,491.77 C289.00,491.36 260.59,490.90 225.86,490.76 L 162.73 490.50 L 161.92 488.31 C161.20,486.36 162.20,485.33 170.80,479.21 C183.54,470.15 213.18,449.59 229.50,438.51 C236.65,433.65 248.80,425.40 256.50,420.17 C264.20,414.94 276.35,406.55 283.50,401.51 C302.27,388.30 313.95,380.16 321.87,374.76 C327.03,371.24 330.23,368.01 334.28,362.26 C337.27,357.99 341.58,352.27 343.83,349.55 C346.09,346.83 347.73,344.40 347.48,344.15 C347.01,343.68 322.74,359.88 306.50,371.50 C301.55,375.04 293.90,380.40 289.50,383.40 C285.10,386.41 277.67,391.52 273.00,394.76 C268.33,398.00 254.22,407.73 241.65,416.38 C218.08,432.62 188.02,453.48 177.50,460.90 C174.20,463.23 167.64,467.77 162.92,470.98 L 154.34 476.82 L 151.05 474.73 L 147.75 472.65 L 148.43 463.07 C150.11,439.23 158.86,396.95 166.56,375.50 C187.89,316.00 219.70,267.40 264.26,226.22 C309.10,184.79 362.82,154.95 419.50,140.01 C440.44,134.49 462.72,130.46 477.54,129.52 C483.02,129.17 488.48,128.69 489.67,128.44 C491.31,128.11 492.36,128.85 493.98,131.46 C496.47,135.50 496.92,134.34 486.73,150.43 C482.88,156.52 476.70,166.45 473.01,172.50 C466.65,182.92 457.75,197.05 427.01,245.50 C397.52,291.99 393.00,299.19 393.00,299.63 C393.00,299.88 392.02,301.41 390.82,303.03 C389.62,304.65 388.84,306.16 389.07,306.39 C389.92,307.21 410.41,294.33 412.04,291.94 C412.95,290.60 417.43,283.42 422.00,276.00 C426.56,268.58 435.06,254.99 440.90,245.82 C458.31,218.43 490.38,166.87 499.00,152.42 C505.02,142.32 506.45,140.54 507.85,141.41 C508.73,141.95 509.01,157.55 508.97,203.32 C508.94,236.97 508.94,265.09 508.96,265.80 C508.99,266.74 510.46,267.02 514.25,266.80 L 519.50 266.50 L 519.76 203.75 C519.98,149.34 520.21,141.00 521.48,141.00 C522.29,141.00 523.58,142.01 524.33,143.25 C525.09,144.49 535.05,160.80 546.46,179.50 C566.83,212.88 574.52,225.29 599.85,265.67 C606.81,276.77 613.66,287.81 615.09,290.20 C617.10,293.58 620.03,296.01 628.34,301.19 C638.81,307.72 640.36,308.14 637.63,303.71 C636.88,302.50 633.22,296.55 629.50,290.50 C625.78,284.45 620.83,276.58 618.51,273.00 C611.63,262.40 585.27,220.41 577.71,208.00 C573.85,201.68 568.97,193.88 566.85,190.68 C564.73,187.48 563.00,184.67 563.00,184.44 C563.00,184.21 560.22,179.62 556.82,174.26 C553.42,168.89 549.12,162.02 547.26,159.00 C545.40,155.98 541.18,149.11 537.87,143.75 L 531.86 134.01 L 534.00 131.00 C535.17,129.35 536.35,128.00 536.61,128.00 C536.87,128.00 543.48,128.69 551.29,129.54 C625.72,137.63 687.08,163.15 746.50,210.73 C759.25,220.95 787.40,248.91 797.50,261.39 L 804.50 270.04 L 812.00 269.46 C816.12,269.14 819.89,268.49 820.38,268.02 C821.34,267.06 815.10,259.14 798.18,239.87 C781.76,221.19 757.04,198.82 738.26,185.67 C699.19,158.31 663.98,141.22 617.50,127.06 C611.42,125.20 593.30,121.07 586.50,119.99 C582.65,119.38 578.15,118.48 576.50,118.00 C574.85,117.52 568.10,116.62 561.50,116.00 C536.61,113.68 537.66,113.92 536.91,110.24 C535.78,104.67 531.62,99.57 525.68,96.46 C521.66,94.35 520.02,92.87 519.66,91.03 C519.39,89.64 519.35,82.34 519.57,74.81 L 519.97 61.12 L 523.98 54.90 C526.19,51.49 528.00,48.37 528.00,47.98 C528.00,47.59 526.17,44.62 523.92,41.38 C521.68,38.15 518.87,34.04 517.67,32.26 C516.48,30.48 515.02,29.02 514.42,29.01 C512.62,28.99 505.32,38.50 501.69,45.59 C500.13,48.65 500.17,48.77 504.56,55.31 L 509.00 61.94 L 509.00 77.45 L 509.00 92.97 L 504.25 95.38 C497.62,98.74 494.28,102.14 491.40,108.44 L 488.91 113.87 L 483.21 114.46 C456.99,117.19 449.68,118.31 430.50,122.54 C399.27,129.43 373.32,138.80 342.08,154.45 C327.67,161.68 323.86,163.84 307.00,174.35 C272.85,195.64 238.40,227.05 211.77,261.21 C181.30,300.29 158.13,346.93 145.07,395.50 C143.89,399.90 142.48,405.08 141.95,407.00 C139.76,414.88 135.82,439.54 134.25,455.24 L 132.56 471.98 L 127.28 474.57 C122.08,477.11 118.07,481.67 115.23,488.25 L 114.04 491.00 L 99.14 491.00 L 84.23 491.00 L 78.24 487.00 C74.94,484.80 71.48,483.00 70.54,483.00 C68.67,483.00 52.00,494.73 52.00,496.05 C52.00,497.40 68.36,508.96 70.30,508.98 C71.29,508.99 74.56,507.42 77.57,505.50 L 83.04 502.00 L 98.87 502.00 L 114.70 502.00 L 116.52 506.04 C118.72,510.93 124.48,516.32 129.39,518.09 C131.41,518.83 133.00,520.08 133.01,520.95 C133.03,524.59 136.11,549.20 137.52,557.00 C139.56,568.26 147.18,599.01 147.92,598.95 C148.24,598.93 151.05,596.57 154.17,593.70 ZM 783.00 496.50 L 788.43 491.00 L 763.22 491.00 L 738.00 491.00 L 738.00 495.83 C738.00,498.49 738.30,500.97 738.67,501.33 C739.03,501.70 747.94,502.00 758.45,502.00 L 777.57 502.00 L 783.00 496.50 ZM 830.41 452.10 L 834.22 448.19 L 819.36 438.25 C811.19,432.78 795.95,422.41 785.50,415.21 C775.05,408.01 758.07,396.35 747.76,389.31 C737.46,382.26 726.21,374.43 722.76,371.90 C712.19,364.12 678.86,341.81 678.44,342.22 C678.08,342.59 689.72,358.63 695.39,365.59 C697.71,368.42 730.04,391.43 768.00,417.24 C776.53,423.04 792.72,434.11 804.00,441.85 C815.28,449.58 824.97,455.93 825.55,455.95 C826.12,455.98 828.31,454.24 830.41,452.10 ZM 875.82 396.70 L 880.92 388.39 L 878.07 378.95 C872.10,359.11 864.84,341.31 854.37,320.84 L 848.92 310.18 L 843.71 309.55 C840.84,309.20 836.81,308.67 834.75,308.37 C832.69,308.07 831.00,308.15 831.00,308.54 C831.00,308.94 833.21,313.14 835.91,317.88 C845.64,334.96 854.96,356.63 862.49,379.71 C865.50,388.94 868.44,398.41 869.02,400.75 C869.60,403.09 870.22,405.00 870.40,405.00 C870.58,405.00 873.02,401.26 875.82,396.70 ZM 511.71 937.89 L 509.14 934.61 L 511.17 931.76 C513.50,928.49 514.90,928.60 516.93,932.20 C518.22,934.48 518.16,935.06 516.32,937.96 L 514.28 941.18 L 511.71 937.89 ZM 954.26 498.60 C950.53,496.18 950.53,495.46 954.28,493.19 C956.81,491.65 957.19,491.65 959.72,493.19 C963.42,495.43 963.50,496.26 960.26,498.65 L 957.49 500.69 L 954.26 498.60 ZM 67.17 497.99 L 64.84 496.05 L 67.67 493.55 C71.19,490.45 71.14,490.45 74.08,493.58 L 76.50 496.17 L 74.14 498.08 C71.21,500.46 70.12,500.45 67.17,497.99 ZM 511.12 51.17 L 509.10 48.33 L 511.30 45.18 C512.51,43.45 513.81,42.03 514.18,42.02 C514.56,42.01 515.83,43.35 517.00,45.00 L 519.14 48.00 L 517.00 51.00 C514.36,54.71 513.66,54.73 511.12,51.17 Z" fill="rgb(249,249,250)"/>
</g>
</svg>